<?xml version="1.0" encoding="UTF-8"?><svg id="Layer_2" xmlns="http://www.w3.org/2000/svg" viewBox="0 0 333.12 333.12"><defs><style>.cls-1{fill:#f7f7f7;}.cls-2{fill:#efd1d6;}.cls-3{fill:#ecd6da;}.cls-4{fill:#f5f5f5;}.cls-5{fill:#fcfdfe;}.cls-6{fill:#fcfdfd;}.cls-7{fill:#fff;}.cls-8{fill:#fefcfc;}.cls-9{fill:#edcbd1;}.cls-10{fill:#84a3c7;}.cls-11{fill:#ce6679;}.cls-12{fill:#ce6779;}.cls-13{fill:#d06e7f;}.cls-14{fill:#ce6577;}.cls-15{fill:#ce6576;}.cls-16{fill:#ce6578;}.cls-17{fill:#cfdbe9;}.cls-18{fill:#d37888;}.cls-19{fill:#cad7e6;}.cls-20{fill:#d98c9a;}.cls-21{fill:#dfa4af;}.cls-22{fill:#d5dde8;}.cls-23{fill:#a2b8d3;}.cls-24{fill:#9ab3d1;}.cls-25{fill:#6f92be;}.cls-26{fill:#6288b8;}.cls-27{fill:#6189b8;}.cls-28{fill:#7597c1;}</style></defs><g id="Layer_1-2"><path class="cls-4" d="m161.64,0C165,0,168.36,0,171.72,0c.19.16.35.43.56.46,1.28.19,2.57.44,3.86.47,1.48.04,2.97-.13,4.45-.21.4,0,.8,0,1.2,0,1.74,1,3.59,1.16,5.52.72.24,0,.48,0,.72,0,.77.77,1.65.93,2.64.48.24,0,.48,0,.72,0,.16.08.32.16.48.24.48,0,.96,0,1.44,0,.44.96,1.14.87,1.92.48h.72c.32,0,.64,0,.96,0,.02.08,0,.18.06.23.6.62,4.64,1.51,5.46,1.21.24,0,.48,0,.72,0,.29.73.75.94,1.44.48.32,0,.64,0,.96,0,0,0,0,0,0,0,.14.16.25.42.43.48,1.23.41,2.48.79,3.73,1.16.1.03.26-.13.4-.2.24,0,.48,0,.72,0,.17.2.3.53.51.58,1.26.32,2.54.58,3.81.86.16,0,.32,0,.48,0,.29.73.75.94,1.44.48.16,0,.32,0,.48,0,.63.89,2.1,1.45,3.12,1.2.32.08.64.16.96.24.1.16.17.45.29.47,1.72.35,1.64,1.61,1.64,2.94-.01,102.52-.01,205.05-.01,307.57,0,.28-.03.56,0,.84.12.97-.27,1.45-1.25,1.67-.51.11-.93.6-1.39.92h-.48c-1.19-.15-2.16.22-2.88,1.2h-.48c-.69-.46-1.15-.25-1.44.48-.32,0-.64,0-.96,0-1.02.25-2.06.47-3.06.77-.22.07-.36.44-.53.67-.32,0-.64,0-.96,0-.13-.07-.29-.23-.39-.2-1.33.37-2.66.75-3.97,1.16-.18.06-.29.31-.43.48h-.48c-.73-.42-1.31-.34-1.68.48-.32,0-.64,0-.96,0-.25-.07-.52-.23-.75-.18-1.31.28-2.62.57-3.92.93-.32.09-.57.45-.85.68h0c-.16,0-.32,0-.48,0h-.96c-.78-.39-1.48-.48-1.92.48h-1.2c-.24.08-.48.16-.72.24h-.72c-.97-.34-1.92-.55-2.64.48h-.72c-1.88-.58-3.67-.08-5.45.5-.04.01-.04.14-.06.22-.48,0-.96,0-1.44,0-.06-.05-.12-.15-.18-.15-2.75.13-5.5.25-8.25.43-.16.01-.3.44-.44.68h-9.59c-.23-.24-.43-.65-.69-.69-1.56-.22-3.12-.42-4.69-.48-1.16-.05-2.33.13-3.49.21-.48,0-.96,0-1.44,0-1.73-1.05-3.59-1.17-5.52-.72h-.72c-.77-.77-1.65-.93-2.64-.48h-.72c-.24-.08-.48-.16-.72-.24-.32,0-.64,0-.96,0-.61-1.1-1.5-.81-2.4-.48h-.48c-.94-.66-1.92-1.17-3.12-.72-.24,0-.48,0-.72,0-.63-.79-1.41-1.1-2.4-.72-.32,0-.64,0-.96,0-.2-.21-.37-.56-.62-.62-1.97-.53-3.96-1.01-5.94-1.49-.11-.03-.26.13-.4.2-.24,0-.48,0-.72,0-.5-.7-2.69-1.42-3.6-1.2-.4-.08-.8-.16-1.2-.24-.02-.08-.02-.21-.06-.22-2.22-.73-4.44-1.45-6.66-2.18l-1.2-.48c0-103.42,0-206.85,0-310.27,0-.4-.11-.84.03-1.19.16-.39.48-.87.84-.99,2.13-.73,4.29-1.35,6.43-2.05.25-.08.41-.41.62-.63.4-.08.8-.16,1.2-.24.64-.24,1.28-.48,1.92-.72.16,0,.32,0,.48,0,.13.07.29.23.4.2,1.71-.42,3.43-.82,5.12-1.31.44-.13.8-.53,1.2-.8.24,0,.48,0,.72,0,.68.46,1.15.25,1.44-.48.24,0,.48,0,.72,0,1.01.46,1.8.18,2.4-.72.32,0,.64,0,.96,0,1.2.45,2.17-.06,3.12-.72.16,0,.32,0,.48,0,.9.33,1.79.62,2.4-.48.4,0,.8,0,1.2,0,.16-.08.32-.16.48-.24.24,0,.48,0,.72,0,.99.45,1.87.3,2.64-.48.24,0,.48,0,.72,0,1.89.61,3.66-.04,5.45-.5.04,0,.04-.14.07-.22.4,0,.8,0,1.2,0,.21.08.43.23.64.23,2.21-.07,4.43-.12,6.64-.27.55-.04,1.07-.44,1.6-.67Z"/><path class="cls-7" d="m150.61,333.12H0v-147.01h.96c.09.58.16,1.16.26,1.74.22,1.26.46,2.52.7,3.78,0,.94-.1,1.89.04,2.81.07.46.58.85.89,1.27.05.39.1.77.14,1.16-.76,1.02-.24,1.77.53,2.47.03.07.06.14.1.2-.02.24-.04.48-.07.72-.02.41-.11.83-.04,1.22.32,1.63.65,3.26,1.08,4.86.13.5.58.91.88,1.37.03.31.07.62.1.92-.08.32-.28.67-.21.95.59,2.16,1.23,4.3,1.87,6.44.06.2.28.36.43.53.24,1.04.44,2.09.74,3.11.13.44.48.82.72,1.23.35,1.11.7,2.22,1.06,3.33.28.88.57,1.75.85,2.63.25.71.44,1.44.75,2.11.5,1.08,1.08,2.13,1.63,3.19.73,1.58,1.46,3.16,2.19,4.74.09,1.09.31,2.11,1.38,2.69.81,1.68,1.62,3.36,2.44,5.04-.03.72.1,1.33.98,1.42h0c-.64,1.3.73,1.48,1.2,2.16,0,0,0,0,0,0-.34.58-.19.92.5.97.02.1.04.2.05.31-.01,1.14.77,2.29,1.72,2.53v.08s-.06.04-.06.04c.18.2.35.4.53.6.07.05.09.11.07.19-.1.18-.33.42-.28.52.3.54.67,1.05,1.01,1.57.78,1.23,1.43,2.56,2.35,3.66.63.75.71,2.11,2.09,2.14l.04.03c.17,1.11.4,2.19,1.59,2.71.07.08.14.15.22.23.17,1.16.81,1.95,1.88,2.42.63.82,1.26,1.64,1.89,2.46.42.47.83.93,1.25,1.4,0,0,0,0,0,0,.08.3.08.65.25.88.87,1.13,1.77,2.24,2.71,3.31.3.34.74.56,1.11.84.16.17.32.33.48.5.48.55.96,1.11,1.44,1.66.08.08.17.15.25.23.07.16.15.32.22.49.97,1.03,1.94,2.07,2.9,3.1.21.1.43.21.64.31.24.24.47.49.71.73.16.16.32.32.47.48,1.28,1.28,2.57,2.55,3.85,3.83.12.13.24.27.36.4,0,.06,0,.11,0,.17,1.02,1,2.04,2,3.06,3,.29.23.58.46.87.69.58.48,1.16.97,1.74,1.45.17.16.33.33.5.49.32.32.65.63.97.95.14,0,.27.02.41.02,0,0,.03.02.03.02.7.76,1.36,1.57,2.12,2.26.4.37.98.55,1.48.81.24.1.48.21.72.31.18.21.35.41.53.62.97.7,1.93,1.41,2.9,2.11.15.17.31.34.46.51.49.5.92,1.1,1.49,1.49,1.38.94,2.82,1.78,4.24,2.66.8,1.61,2.42,2.1,3.87,2.82,1.27.8,2.53,1.63,3.82,2.39.43.25.95.34,1.43.51.25.3.45.71.77.88,1.63.87,3.3,1.68,4.96,2.49.55.27,1.13.47,1.7.7h0c.48.32.96.64,1.44.96.6.28,1.19.56,1.79.84.11,0,.22,0,.33,0,.61.85,2.01,1.51,2.69,1.26.21.03.42.06.64.09.27.16.54.33.8.49.07.07.14.13.22.2.13.55.32.97.96.47.08,0,.15,0,.22.04.33.58.66,1.18,1.48.66.07,0,.14,0,.21.04.23.29.41.72.71.86,1.58.69,3.17,1.34,4.79,1.94.86.32,1.77.52,2.66.77.17.16.31.39.51.47,1.97.73,3.92,1.52,5.93,2.12,3.36,1.01,6.74,1.96,10.13,2.82,3.33.84,6.68,1.6,10.05,2.27,1.9.38,3.85.5,5.77.79,2.34.35,4.68.74,7.01,1.17.79.15,1.56.46,2.34.7Z"/><path class="cls-7" d="m0,146.77V0C49.64,0,99.29,0,148.93,0c-.07.13-.13.37-.22.38-1.17.21-2.33.41-3.51.57-2.15.28-4.32.43-6.45.83-2.75.51-5.46,1.2-8.19,1.8-2.08.45-4.17.84-6.24,1.33-.47.11-.87.55-1.3.85-.16,0-.32,0-.48,0-.4-.04-.85-.2-1.21-.09-3.35,1.05-6.71,2.09-10.02,3.28-.84.3-2.05.17-2.45,1.37,0,.08,0,.16,0,.25-.32.08-.64.16-.96.24,0,0,0,0,0,0-.95-.12-1.97-.39-2.43.86-.07.03-.14.06-.21.09-.16,0-.32,0-.48,0-.85.28-2.01-.13-2.42,1.11-.23.08-.47.17-.7.25-.68.15-1.42.2-2.05.48-2.22,1.01-4.4,2.08-6.58,3.17-.38.19-.66.59-.99.9-.46.2-.93.4-1.39.61-.17.06-.33.13-.5.19-1.04.56-2.07,1.13-3.11,1.69-1.12.63-2.25,1.25-3.37,1.88-.08,0-.16,0-.23.02-.09.08-.18.16-.27.23-.48.15-1.02.21-1.44.48-2.87,1.82-5.72,3.69-8.58,5.55-.57.48-1.14.96-1.71,1.43-1.7.78-3.22,1.79-4.36,3.3-.38.18-.76.36-1.14.54-.33.24-.65.49-.98.73-1.32,1.17-2.64,2.34-3.96,3.51-1.57.66-2.82,1.7-3.75,3.13-1.26,1.06-2.53,2.12-3.79,3.18-.86.07-.91.12-.74.71-.42.54-.84,1.07-1.26,1.61-.33.34-.66.69-1,1.02-1.5,1.46-3.01,2.91-4.52,4.37-1.37.52-2.05,1.73-2.83,2.83-.22.25-.45.5-.67.74,0,0,0,0,0,0-.79.15-1.23.61-1.22,1.44-.07.08-.14.16-.21.25-.89,1.11-1.78,2.22-2.68,3.32-.08.08-.16.17-.24.25-1.51.76-2.24,2.13-2.89,3.59,0,0,0,0,0,0-.65.8-1.3,1.61-1.95,2.41-1.23.61-1.85,1.53-1.62,2.4-.08.16-.15.32-.23.49-.85-.44-.99.04-.97.74-1.54,2.31-3.07,4.61-4.61,6.92-.6.8-1.2,1.59-1.78,2.4-.01.02.2.19.31.29-.05.06-.09.13-.14.19-.17.24-.33.49-.5.73h0c-1.19.47-1.5,1.51-1.69,2.62-1.64,2.99-3.31,5.97-4.91,8.98-.33.62-.4,1.37-.59,2.06-.08.16-.16.32-.25.48-.07.16-.13.32-.2.48-.12.32-.23.63-.35.95-.14.24-.28.48-.42.72-.03.14-.06.28-.1.41-.13.1-.27.19-.4.29-.06.17-.11.34-.17.51-.03.23-.07.46-.1.69-.07-.02-.13-.02-.2,0-.15.32-.31.65-.46.97-.03.15-.06.3-.09.45-.14.25-.27.5-.41.75-.1.31-.2.62-.3.93-.5.05-.88.17-.4.75-.08.24-.17.48-.25.71-1.24.14-.49,1.12-.71,1.69-.01.07-.03.14-.07.2-.81.13-.84.49-.32,1.03,0,.12,0,.25.01.37-.12.1-.25.2-.37.3-.15.33-.31.65-.46.98-.15.24-.3.49-.45.73-.08.16-.15.32-.23.49-.09.47-.18.95-.28,1.42-.07.16-.15.32-.22.48.02.25.03.5.05.75-.03.15-.07.29-.1.44-.07-.02-.15-.02-.22,0-.75.17-.89.58-.46,1.21-.08.24-.16.49-.24.73-.09.16-.17.31-.26.47.01.25.03.49.04.74-.05.15-.1.3-.16.45-.06.07-.13.14-.19.21-.48.19-.9.41-.39.99.03.18.06.35.09.53-.04.22-.09.44-.13.67-.07-.02-.14-.02-.21,0-.15.32-.31.64-.46.96.04.24.08.48.13.72-.02.21-.04.42-.06.63-.12.16-.24.32-.37.49-.07.35-.14.7-.21,1.04-.01.15-.03.29-.04.44-.16.25-.31.49-.47.74-.07.17-.14.34-.21.51.03.25.05.5.08.75-.03.23-.07.46-.1.68-.08.07-.16.15-.24.22-.71.08-.89.39-.43.99.03.25.05.5.08.76-.04.14-.08.29-.11.43-.15.32-.31.65-.46.97.01.33.02.65.04.98-.04.31-.07.62-.11.92-.06.25-.12.5-.19.75-.03.07-.05.14-.05.22-.11.33-.23.67-.34,1-.04.22-.08.45-.12.67-.77.86-1.39,1.74-.55,2.91-.02.23-.04.47-.06.7-1.2,1.15-1.04,2.62-.97,4.08-.15.83-.29,1.65-.44,2.48.08.38.17.76.25,1.14-.06.39-.11.78-.17,1.16-.08.16-.16.32-.24.47-.14.17-.28.34-.42.5-.32,0-.63,0-.95,0Z"/><path class="cls-7" d="m196.18,330.24h.48c.34.11.7.37,1.01.32,2.16-.4,4.31-.83,6.44-1.34.59-.14,1.11-.58,1.67-.89.16,0,.32,0,.48,0,.33.06.7.25.99.17,1.9-.51,3.78-1.06,5.66-1.64.86-.26,1.69-.63,2.55-.91,2.79-.9,5.59-1.76,8.37-2.67.27-.09.45-.46.67-.7.16-.16.32-.32.48-.48.4-.1.8-.19,1.2-.29l.1.02s.1-.02.1-.02c.32.09.64.18.96.26.17-.22.33-.44.5-.66,1.15-.41,2.32-.79,3.45-1.25,1.5-.61,2.97-1.28,4.46-1.92.76.02,1.43-.08,1.4-1.08.05-.07.11-.1.2-.08.72.55,1.95.07,2.49-.96,1.68-.81,3.36-1.63,5.03-2.44.7.04,1.29-.08,1.43-.91.34-.09.72-.1,1.01-.27,1.92-1.11,3.81-2.24,5.71-3.37,1.26-.38,2.35-1.01,3.11-2.12.75-.41,1.55-.76,2.25-1.25,2.01-1.4,3.97-2.86,5.96-4.3.64-.08,1.31-.14,1.37-1.01.15-.15.31-.29.46-.44.47-.17,1.02-.25,1.4-.54,1.64-1.25,3.24-2.54,4.83-3.86,1.08-.9,2.11-1.86,3.16-2.8,1.3-1.17,2.61-2.33,3.88-3.53.82-.78,1.58-1.63,2.36-2.44,1.76-1.76,3.52-3.52,5.28-5.28,1.1-1.12,2.21-2.24,3.31-3.38.08-.09.04-.3.05-.46.08-.08.16-.16.24-.24,1.19-1.19,2.41-2.36,3.56-3.6.35-.38.52-.94.76-1.42.08-.08.16-.17.24-.25.32-.24.64-.48.96-.72,1.74-1.83,3.5-3.64,4.54-6,1.45-2.08,2.9-4.15,4.35-6.23.28-.2.66-.33.83-.6,1.5-2.31,2.98-4.64,4.41-6.99.39-.65.61-1.4.91-2.11.48-.85.95-1.71,1.43-2.56.08-.16.17-.32.25-.48.09-.23.18-.46.27-.69.22-.13.54-.21.65-.41.45-.81.86-1.64,1.25-2.48.51-1.11.98-2.23,1.47-3.35.81-1.73,1.62-3.45,2.42-5.18.58-1.27,1.16-2.54,1.67-3.84.29-.73.43-1.51.64-2.27.04-.31.08-.61.12-.92.16-.16.31-.32.47-.47.06-.17.12-.34.18-.51.08-.24.17-.48.25-.72.08-.24.16-.48.25-.71,0-.08,0-.16.04-.23,1.08-.47.74-1.62,1.16-2.41.09-.16.17-.31.26-.47,0-.32.01-.64.02-.95,1.54-1.35,1.19-3.46,2.05-5.11.59-1.13.71-2.51,1.03-3.78.81-.51.65-1.08.1-1.68,0-.15,0-.3,0-.45.12-.01.24-.02.36-.03.91-.62.99-1.19.28-1.91.03-.22.06-.45.09-.67,1.19-.15.96-.79.53-1.5.04-.31.07-.62.11-.93.69-.2.87-.6.48-1.23-.03-.17-.07-.33-.1-.5.05-.3.1-.6.15-.9.21-.17.42-.34.63-.52.08-.16.16-.32.23-.48.19-.95.46-1.9.55-2.86.06-.64-.11-1.31-.18-1.97.01-.15.03-.29.04-.44.18-.24.37-.48.55-.72.15-.17.31-.35.46-.52-.08-1.04-.17-2.07-.25-3.11,0-.07,0-.14.03-.2,1.25-.56.67-1.53.53-2.39.05-.47.09-.93.14-1.4.18-.49.35-.99.53-1.48h.72v147.01h-150.37c.27-.16.52-.41.8-.46.89-.18,1.79-.3,2.68-.42,2.65-.35,5.31-.64,7.95-1.07.7-.11,1.33-.61,2-.93Z"/><path class="cls-7" d="m196.9,2.64c-.32,0-.64,0-.96,0-.58-.32-1.13-.78-1.76-.92-1.17-.27-2.38-.35-3.57-.51-1.83-.24-3.67-.47-5.5-.74-.24-.04-.46-.3-.68-.46,49.56,0,99.13,0,148.69,0v152.05c-.23,0-.46,0-.68-.01-.03-.39-.06-.77-.08-1.16.02-.65.05-1.3.07-1.95.36-.98.41-1.9-.46-2.66-.01-.15-.03-.3-.04-.46-.03-1.14-.06-2.29-.12-3.43,0-.07-.33-.13-.51-.19-.04-.07-.08-.15-.12-.22-.03-.3-.06-.61-.09-.91-.13-1.35-.27-2.7-.4-4.05.64-1.89-.57-3.59-.54-5.44.01-.94-.39-1.89-.64-2.82-.05-.18-.29-.31-.44-.47-.17-.24-.34-.47-.5-.71-.04-.06-.07-.12-.09-.19.03-.42.07-.83.1-1.25-.15-.32-.3-.64-.45-.96-.04-.63.05-1.31-.13-1.9-.54-1.77-1.23-3.49-1.79-5.25-.46-1.43-.83-2.89-1.23-4.34.04-.75.1-1.51-.91-1.71-.09-.16-.18-.32-.26-.47.09-.26.29-.54.25-.76-.1-.47-.31-.93-.51-1.38-.52-1.14-1.07-2.28-1.6-3.42-.1-.23-.19-.46-.29-.69-.09-.15-.18-.31-.27-.46l-.08.03c.03-.25.06-.51.09-.76-.08-.16-.16-.32-.24-.48-.14-.02-.27-.04-.41-.07-.03-.13-.06-.27-.08-.41-.15-.41-.3-.82-.44-1.23l-.98-3.08c-.23-1.13-.45-2.26-1.59-2.89-.59-1.43-1.18-2.86-1.77-4.3-.47-1-.92-2-1.42-2.98-.1-.2-.44-.27-.67-.4-.14-.4-.22-.83-.41-1.2-.9-1.68-1.84-3.35-2.76-5.02-.06-.26-.06-.57-.19-.78-1.49-2.4-2.99-4.79-4.54-7.16-.3-.47-.81-.8-1.23-1.19-1.45-2.08-2.9-4.16-4.34-6.23-1.59-2.07-3.19-4.14-4.79-6.2-.04-.05-.15-.04-.23-.06-1.12-2.32-3.01-4-4.82-5.73-.88-.88-1.76-1.75-2.64-2.63-.29-.19-.58-.38-.87-.57-1.76-1.76-3.52-3.52-5.28-5.29-.19-.29-.38-.58-.57-.86-.96-.96-1.91-1.93-2.87-2.89-.32-.24-.64-.48-.96-.71-.4-.39-.81-.77-1.21-1.16-.23-.17-.46-.35-.69-.52-.33-.31-.66-.61-.98-.92-.24-.17-.48-.34-.71-.51-.08-.08-.16-.15-.24-.23-.18-.16-.35-.32-.53-.47-1.34-1.05-2.68-2.1-4.02-3.15-.44-1.11-1.24-1.68-2.44-1.65-.08-.08-.16-.16-.23-.24.02-.19.1-.51.03-.55-.61-.33-1.24-.61-1.87-.91-.11-.16-.19-.36-.33-.47-1.76-1.25-3.52-2.52-5.32-3.72-.8-.53-1.7-.91-2.55-1.35-.39-1.15-1.42-1.36-2.4-1.65-1.84-1.09-3.69-2.19-5.53-3.28-.86-.51-1.74-1-2.61-1.5-.24-.09-.49-.17-.73-.26-2.37-1.27-4.71-2.59-7.11-3.78-1.82-.9-3.7-1.66-5.58-2.43-1-.41-2.06-.68-3.09-1.01,0,0-.01,0-.01,0-.17-.08-.34-.16-.5-.25-.32-.15-.64-.3-.96-.45-.24-.09-.47-.19-.71-.28-.09,0-.17.01-.26.02-.32-.23-.64-.46-.96-.69-.48-.08-.96-.16-1.44-.24-.21-.16-.4-.39-.63-.48-1.85-.69-3.69-1.42-5.58-2-.92-.28-1.93-.28-2.9-.4-.32-.16-.64-.32-.96-.48-.18-.16-.34-.4-.56-.46-1.41-.44-2.82-.89-4.25-1.23-1.02-.24-2.07-.32-3.11-.47-.24,0-.48,0-.72,0,0,0,0,0,0,0-.59-.8-4.67-1.82-5.76-1.44-.16,0-.32,0-.48,0-.48-.8-1.13-.9-1.92-.48-.16,0-.32,0-.48,0Z"/><path class="cls-14" d="m328.46,127.4c.02.07.05.13.09.19,0,.16-.01.32-.02.49-.3.59-.36,1.11.38,1.42l-.05,1.05c-.02,1.03-.36,2.15.87,2.79v.25c-.15.92-.73,1.93.45,2.62.03.15.06.31.09.46.27,1.46.55,2.92.82,4.38.03.3.06.61.09.91-.64.33-.64.65.01.96.01.15.03.3.04.45-.2.6-.65,1.23.19,1.71.02.23.04.47.06.7.09.4.18.81.27,1.21.01.15.02.3.03.45-.03.57-.05,1.14-.08,1.71l.18,1.21c.16.17.31.34.47.51.03.39.06.77.08,1.16-.02.17-.03.34-.05.51,0,.95.01,1.91.02,2.86.07.49.14.98.2,1.47l.03,1.4c-.07.26-.22.52-.21.77.06,1.87.14,3.74.25,5.61.01.2.29.39.45.58v2.4c-.16.35-.43.69-.45,1.05-.19,2.72-.36,5.43-.47,8.15-.03.77.13,1.54.2,2.31.02.49.04.97.06,1.46-.04.39-.09.77-.13,1.16-1.05.83-.66,1.87-.42,2.9,0,.15-.01.31-.02.46-.06.49-.13.97-.19,1.46-.01.34-.02.68-.04,1.02-.6.78-1,1.6-.46,2.58,0,.4.02.8.02,1.2-.02.06-.03.13-.03.2-.16.49-.33.99-.49,1.48-.06.24-.12.49-.18.73-.03.72-.06,1.44-.1,2.15-.01.15-.03.29-.04.44-.13.25-.27.5-.4.75-.06.24-.12.48-.18.73-.1.64-.21,1.28-.31,1.91-.13.48-.26.97-.4,1.45.02.33.04.65.06.98-.05.3-.1.6-.15.9-.14.41-.28.82-.42,1.23l.04.5c-.04.31-.07.62-.11.93-.06.08-.13.15-.2.23-.13.26-.26.52-.38.78.02.17.03.33.05.5-.03.22-.06.45-.09.67-.04.07-.08.14-.12.21-.17.58-.34,1.16-.52,1.74,0,.15,0,.3,0,.45-.05.08-.09.16-.14.24-.21.37-.42.73-.63,1.1-.03.36-.06.71-.1,1.07-.06.08-.12.17-.18.25,0,0,.01,0,.01,0-.08.24-.16.48-.24.72-.1.48-.2.96-.31,1.44-.06.09-.12.17-.19.26,0,.07-.02.14-.04.21-.06.16-.13.32-.19.49-.1.4-.21.8-.31,1.19-.13.32-.26.65-.39.97-.1.32-.2.63-.3.95-.07.24-.14.48-.21.72-.07.32-.14.64-.2.96-.3.73-.59,1.46-.89,2.2-.16.05-.31.1-.47.16.07.11.14.22.21.33-.02.39-.03.78-.05,1.17-.03.07-.04.15-.04.23-.1.07-.19.15-.29.22-.15.4-.3.79-.45,1.19-.02.08-.04.16-.06.24-.12.25-.23.51-.35.76-.04.31-.08.61-.12.92-.07-.02-.14-.02-.21,0-.13.19-.26.37-.38.56-.11.22-.22.44-.33.66-.15.33-.3.66-.44.99-.1.31-.19.63-.29.94l-.2.25c-.18.48-.35.95-.53,1.43-.06.08-.13.16-.19.24l-.29.71c-.06.16-.13.32-.19.48-.42.96-.84,1.93-1.26,2.89-.06.08-.12.16-.18.23-.16.32-.32.64-.48.95-.1.23-.19.47-.29.7.03.09.06.18.09.27l-.06-.03c-.31.57-.61,1.14-.92,1.71h0c-.08.15-.16.31-.24.47,0,.08-.02.16-.05.23-.23.4-.46.8-.69,1.2-.15.32-.3.65-.45.97-.09.16-.18.31-.27.47-.09.23-.18.47-.27.7-.8,1.43-1.59,2.87-2.39,4.3h0c-.14.19-.28.37-.42.55-.74,1.27-1.48,2.54-2.22,3.81-.94.02-.88.8-1.06,1.4.01.04.05.08.04.1-.03.07-.08.12-.12.18-.21.3-.41.6-.62.9-.03.1-.07.2-.1.3-.24.33-.49.65-.73.98h0c-.07.15-.15.31-.22.47-.1.15-.2.29-.3.44-.53.67-1.09,1.31-1.58,2.01-1.09,1.56-2.15,3.14-3.23,4.71-.62.81-1.24,1.62-1.86,2.43-.25.32-.49.65-.74.97-.39.56-.79,1.11-1.18,1.67-.25.24-.5.48-.74.72-.15.16-.31.32-.46.48-.17.22-.35.44-.52.67-.8.89-1.6,1.79-2.4,2.68-.07.09-.14.18-.22.27l-1.44,2.13c-.08.08-.16.16-.24.24-1.11,1.06-2.21,2.13-3.32,3.19-1.99,1.99-3.99,3.97-5.98,5.96-1.7,1.58-3.4,3.17-5.1,4.75-.83,0-1.23.4-1.18,1.23-.42.31-.83.62-1.25.92-.23.17-.45.34-.68.51-.16.15-.32.31-.48.46-.32.24-.64.49-.96.73,0,0,0,0,0,0-.24.24-.48.49-.72.73-.24.15-.48.3-.72.46-.64.48-1.28.97-1.92,1.45h0c-.25.22-.49.44-.74.67-.39.25-.78.51-1.17.76-.41.32-.81.64-1.22.96-.24.23-.49.46-.73.7-.24.08-.47.17-.71.25-.32.24-.65.47-.97.71-.96.64-1.92,1.28-2.88,1.92-.32.23-.64.47-.97.7,0,0,0,.01,0,.01-.24.16-.47.31-.71.47-.4.25-.79.49-1.19.74-.24.16-.48.32-.72.48,0,0,0,0,0,0-.08.08-.16.16-.25.23-.95.65-1.91,1.31-2.86,1.96-.4.15-.79.3-1.19.45-.25.16-.5.32-.74.47-1.6.97-3.2,1.95-4.8,2.92-.49.21-.97.43-1.46.64-1.75.92-3.49,1.84-5.24,2.76l-2.27,1.15c-.08-.02-.15,0-.2.08-.47.19-.94.38-1.41.57-.37.12-.74.21-1.1.36-1.36.54-2.71,1.1-4.06,1.65-.19.15-.38.29-.57.44-.24.07-.48.15-.72.22-.64-.5-.83-.07-.96.47-.17.11-.34.23-.51.34-.24.13-.49.25-.73.38-.24.07-.48.14-.71.21,0,0-.1.02-.1.02l-.1-.02c-.96-4.22-.45-8.49-.45-12.74-.03-98.13-.03-196.27,0-294.4,0-1.05.3-2.1.46-3.15.98.36,1.95.72,2.93,1.08.92.35,1.85.67,2.74,1.06,2.73,1.2,5.45,2.4,8.16,3.65,1.64.75,3.24,1.58,4.86,2.38.24.09.49.18.73.26.13.14.24.31.4.41,1.7.99,3.41,1.96,5.12,2.94.08.07.16.13.25.2.8.41,1.59.81,2.39,1.22.63.4,1.26.8,1.89,1.2.14.14.25.31.41.42,2.27,1.54,4.54,3.07,6.81,4.6.24.16.48.32.72.48.08.08.16.15.25.23.73.98,1.53,1.86,2.87,1.93.33.23.66.46,1,.68.24.16.47.32.71.48,0,0,0,0,0,0,1.48,1.23,2.97,2.46,4.45,3.69.99.93,1.97,1.89,2.99,2.79.44.39.99.66,1.49.99.03.05.03.09,0,.14l.41.56c.95.81,1.89,1.62,2.84,2.42.35.28.71.57,1.06.85,1.76,1.76,3.52,3.52,5.28,5.29.29.35.57.7.86,1.05.64.71,1.29,1.43,1.93,2.14.62.92,1.19,1.88,1.88,2.74,1.66,2.07,3.38,4.09,5.07,6.14-.49-.26-1.11-.4-1.44-.79-1.8-2.06-3.44-4.26-5.29-6.26-2.72-2.94-5.51-5.82-8.38-8.62-2.31-2.25-4.72-4.4-7.19-6.47-2.83-2.37-5.68-4.73-8.69-6.86-4.57-3.23-9.23-6.34-13.97-9.32-3.46-2.17-7.04-4.16-10.68-6-3.81-1.93-7.75-3.62-11.66-5.36-.95-.43-1.99-.66-3.12-1.02v307.18c1.22-.38,2.32-.64,3.36-1.06,1.86-.75,3.69-1.57,5.51-2.41,2.42-1.11,4.87-2.17,7.21-3.43,3.45-1.85,6.86-3.8,10.22-5.82,3.13-1.89,6.25-3.81,9.24-5.92,3-2.12,5.83-4.49,8.74-6.74,3.71-2.86,7.22-5.93,10.48-9.29,1.69-1.74,3.52-3.36,5.26-5.06.48-.47.88-1.03,1.34-1.52,2.02-2.15,4.13-4.22,6.06-6.45,1.45-1.67,2.68-3.54,3.99-5.33,2.46-3.36,5.07-6.64,7.34-10.13,3.74-5.76,7.24-11.69,10.09-17.94,2.75-6.05,5.13-12.27,7.54-18.47,1.09-2.8,1.93-5.7,2.73-8.59,1.14-4.11,2.22-8.24,3.15-12.4.65-2.94,1.02-5.94,1.49-8.91.27-1.75.54-3.51.72-5.28.22-2.25.34-4.51.52-6.77.22-2.84.47-5.69.69-8.53.04-.48-.14-1.02.03-1.43.59-1.44.25-2.79.05-4.27-.47-3.41-.5-6.87-.8-10.3-.36-4.06-.63-8.14-1.26-12.16-.76-4.85-1.79-9.65-2.83-14.45-.45-2.06-1.25-4.05-1.86-6.08-.78-2.6-1.46-5.23-2.29-7.8-.66-2.05-1.46-4.05-2.27-6.05-1.48-3.65-2.99-7.29-4.53-10.92-.69-1.64-1.39-3.29-2.26-4.83-2.34-4.18-4.71-8.34-7.18-12.45-1.62-2.68-3.39-5.27-5.16-7.86-1.39-2.03-2.89-3.98-4.31-5.99-.22-.31-1.01-.7-.09-1.14.41.24.81.47,1.22.71h0c.23.24.45.48.68.73.18.31.37.63.55.94.89,1.27,1.78,2.54,2.68,3.8.76,1.07,1.54,2.12,2.31,3.19,1.77,2.79,3.54,5.58,5.32,8.37.34.62.68,1.24,1.04,1.85.91,1.56,1.83,3.11,2.74,4.67.17.39.34.78.51,1.16.37.72.74,1.44,1.11,2.16l.33.94c.07.08.13.17.2.25.41.87.83,1.75,1.24,2.62.12,1.32.45,2.54,1.58,3.38.03.16.07.32.1.48.08.16.17.32.25.48.31.65.62,1.29.92,1.94.24.4.48.8.72,1.19.03.13.06.27.08.41.19.44.37.87.56,1.31,0,0,.08-.03.08-.03,0,.16,0,.31,0,.47.15.33.3.66.46.99.1.47.19.93.29,1.4l.19.48c.09.24.19.48.28.72-.44.61-.11.94.44,1.2.02.15.04.3.06.45-.04.75-.11,1.52.91,1.71,0,.08,0,.17,0,.25-.3.61-.4,1.16.44,1.43l.1.71c.14.32.27.64.41.96.34,1.2.69,2.39,1.03,3.59.07.24.13.48.2.73.17.56.34,1.12.52,1.67.06.16.11.32.17.48.1.48.21.95.32,1.43-.49.61-.3,1,.41,1.21.04.23.07.46.11.69.27.66.54,1.33.8,1.99Z"/><path class="cls-5" d="m150.61,333.12c-.78-.24-1.54-.56-2.34-.7-2.33-.43-4.67-.81-7.01-1.17-1.92-.29-3.87-.4-5.77-.79-3.37-.68-6.72-1.43-10.05-2.27-3.4-.86-6.78-1.81-10.13-2.82-2.01-.6-3.96-1.39-5.93-2.12-.2-.07-.34-.31-.51-.47,0-.07,0-.15,0-.22.32,0,.64,0,.96,0l1.2.48c.21.16.39.4.63.48,2.02.66,4.05,1.29,6.08,1.92.4.08.8.16,1.2.24,1.2.4,2.4.8,3.6,1.2.24,0,.48,0,.72,0,.1.12.18.32.3.35,2.21.53,4.43,1.05,6.65,1.57.32,0,.64,0,.96,0l2.4.72c.24,0,.48,0,.72,0,1.04.24,2.08.48,3.12.72h.48c.8.16,1.6.32,2.4.48.32,0,.64,0,.96,0l.72.24h.72c.88.16,1.76.32,2.64.48h.72c1.84.24,3.68.48,5.52.72h1.44c.6.08,1.22.1,1.8.26.54.15,1.04.46,1.56.7h-3.84c-.4-.77-.8-.77-1.2,0h-.72Z"/><path class="cls-6" d="m123.03,5.75c.43-.29.82-.73,1.3-.85,2.07-.49,4.16-.88,6.24-1.33,2.73-.59,5.44-1.29,8.19-1.8,2.13-.39,4.3-.54,6.45-.83,1.17-.16,2.34-.36,3.51-.57.09-.02.15-.25.22-.38,2.16,0,4.32,0,6.48,0-.31.16-.6.39-.93.46-.56.13-1.14.17-1.71.25-.4,0-.8,0-1.2,0-1.84.24-3.68.48-5.52.72-.24,0-.48,0-.72,0-.88.16-1.76.32-2.64.48-.24,0-.48,0-.72,0-.16.08-.32.16-.48.24-.4,0-.8,0-1.2,0-.8.16-1.6.32-2.4.48-.16,0-.32,0-.48,0-1.04.24-2.08.48-3.12.72-.32,0-.64,0-.96,0-.8.24-1.6.48-2.4.72-.24,0-.48,0-.72,0-.48.16-.96.32-1.44.48-.24,0-.48,0-.72,0-1.68.4-3.36.8-5.04,1.2Z"/><path class="cls-5" d="m196.18,330.24c-.66.32-1.3.82-2,.93-2.64.42-5.3.71-7.95,1.07-.9.12-1.8.24-2.68.42-.29.06-.54.3-.8.46h-.72c-.4-.77-.8-.77-1.2,0h-3.84c.52-.24,1.02-.55,1.56-.7.58-.16,1.2-.18,1.8-.26.48,0,.96,0,1.44,0,1.84-.24,3.68-.48,5.52-.72h.72c.88-.16,1.76-.32,2.64-.48h.72c.24-.08.48-.16.72-.24h1.2c.64-.16,1.28-.32,1.92-.48h.96Z"/><path class="cls-8" d="m184.43,0c.23.16.44.43.68.46,1.83.27,3.67.5,5.5.74,1.19.16,2.4.24,3.57.51.62.14,1.17.61,1.76.92-.24,0-.48,0-.72,0-.64-.16-1.28-.32-1.92-.48-.48,0-.96,0-1.44,0-.16-.08-.32-.16-.48-.24-.24,0-.48,0-.72,0-.88-.16-1.76-.32-2.64-.48-.24,0-.48,0-.72,0-1.84-.24-3.68-.48-5.52-.72-.4,0-.8,0-1.2,0-.57-.08-1.15-.12-1.71-.25-.33-.08-.62-.3-.93-.46,2.16,0,4.32,0,6.48,0Z"/><path class="cls-7" d="m0,180.59C0,171.24,0,161.88,0,152.53c.08,0,.17,0,.25,0,0,.81.01,1.61.02,2.42,0,1.11,0,2.23,0,3.34v6.95c0,.71,0,1.43,0,2.14,0,2.56.01,5.11.02,7.67.07,1.68.14,3.37.22,5.05-.08.16-.15.31-.23.47-.09,0-.18,0-.27.01Z"/><path class="cls-1" d="m180.35,332.16c-.6.08-1.22.1-1.8.26-.54.15-1.04.46-1.56.7h-5.52c.15-.24.28-.67.44-.68,2.75-.18,5.5-.3,8.25-.43.06,0,.12.1.18.15Z"/><path class="cls-1" d="m156.37,333.12c-.52-.24-1.02-.55-1.56-.7-.58-.16-1.2-.18-1.8-.26,1.16-.08,2.33-.26,3.49-.21,1.57.06,3.14.27,4.69.48.26.04.46.45.69.69h-5.52Z"/><path class="cls-20" d="m332.39,179.15c-.07-.77-.23-1.55-.2-2.31.12-2.72.28-5.44.47-8.15.03-.36.3-.7.45-1.05v8.63c-.16.31-.39.6-.46.93-.14.64-.19,1.3-.27,1.95Z"/><path class="cls-1" d="m152.77.72c.57-.08,1.15-.12,1.71-.25.33-.08.62-.3.93-.46,2.08,0,4.16,0,6.24,0-.53.23-1.05.64-1.6.67-2.21.16-4.42.21-6.64.27-.21,0-.43-.15-.64-.23Z"/><path class="cls-1" d="m177.95,0c.31.16.6.39.93.46.56.13,1.14.17,1.71.25-1.48.08-2.97.24-4.45.21-1.29-.03-2.58-.27-3.86-.47-.21-.03-.37-.3-.56-.46,2.08,0,4.16,0,6.24,0Z"/><path class="cls-5" d="m0,180.59c.09,0,.18,0,.27-.01.21.01.43.02.64.03.06.39.12.78.17,1.17-.06.4-.11.8-.17,1.21.01,1.04.02,2.08.04,3.12H0C0,184.27,0,182.43,0,180.59Z"/><path class="cls-6" d="m.25,152.53c-.08,0-.17,0-.25,0,0-1.92,0-3.84,0-5.76.32,0,.63,0,.95,0,0,1.28,0,2.56,0,3.83-.02.63-.04,1.26-.06,1.9-.21.01-.42.02-.62.03Z"/><path class="cls-20" d="m333.12,165.24c-.16-.19-.43-.38-.45-.58-.11-1.87-.19-3.74-.25-5.61,0-.25.14-.51.21-.77.16,0,.33,0,.49,0v6.95Z"/><path class="cls-8" d="m332.32,181.77c.04-.39.09-.77.13-1.16.23,0,.45-.01.68-.02v5.52h-.72c0-.96.01-1.92.02-2.88-.03-.49-.07-.97-.1-1.46Z"/><path class="cls-21" d="m333.12,158.29c-.16,0-.32,0-.49,0,0-.47-.02-.94-.03-1.4-.07-.49-.14-.98-.21-1.47,0-.95-.01-1.91-.02-2.86.25.15.49.31.74.46v5.28Z"/><path class="cls-9" d="m333.12,180.59c-.23,0-.45.01-.68.02-.02-.49-.04-.97-.06-1.46.09-.65.13-1.31.27-1.95.07-.33.3-.62.46-.93v4.32Z"/><path class="cls-7" d="m180.83,333.12c.4-.77.8-.77,1.2,0h-1.2Z"/><path class="cls-7" d="m151.33,333.12c.4-.77.8-.77,1.2,0h-1.2Z"/><path class="cls-3" d="m333.12,153.01c-.25-.15-.49-.31-.74-.46.02-.17.03-.34.05-.51.23,0,.46,0,.68.01v.96Z"/><path class="cls-1" d="m109.84,322.57c-.32,0-.64,0-.96,0-.02-.26-.03-.52-.05-.79,0-.76.01-1.52.01-2.28,0-101.79,0-203.57,0-305.36,0-.56-.02-1.12-.03-1.68.03-.08.05-.16.08-.24,0-.56,0-1.11-.01-1.67,0-.08,0-.16,0-.25.23-.04.47-.06.69-.14,2.73-.91,5.46-1.83,8.18-2.74-.2.22-.37.55-.62.63-2.14.7-4.3,1.32-6.43,2.05-.36.12-.68.6-.84.99-.14.34-.03.79-.03,1.19,0,103.42,0,206.85,0,310.27Z"/><path class="cls-1" d="m224.24,10.07c.48.08.96.16,1.44.24,0,.07,0,.14,0,.22-.38.02-.76.03-1.14.08-.02,0,0,.29,0,.44-.01.48-.03.96-.03,1.44,0,101.88,0,203.76,0,305.65,0,.6.02,1.2.03,1.8-.03.56-.06,1.12-.08,1.69-.07.32-.14.64-.22.95-1.12.4-2.25.8-3.37,1.2.46-.32.88-.81,1.39-.92.98-.22,1.37-.7,1.25-1.67-.03-.28,0-.56,0-.84,0-102.52,0-205.05.01-307.57,0-1.33.08-2.6-1.64-2.94-.12-.03-.2-.31-.29-.47.88.24,1.76.48,2.64.72Z"/><path class="cls-5" d="m220.88,323.77c1.12-.4,2.25-.8,3.37-1.2.08,0,.15,0,.23.02-.22.24-.4.61-.67.7-2.78.92-5.58,1.78-8.37,2.67-.86.28-1.69.65-2.55.91-1.88.57-3.76,1.13-5.66,1.64-.29.08-.66-.11-.99-.17.43-.18.86-.37,1.3-.54.84-.31,1.69-.6,2.53-.9.32,0,.64,0,.96,0,.89-.24,1.79-.44,2.66-.74.35-.12.63-.46.93-.7.32,0,.64,0,.96,0,.48-.16.96-.32,1.44-.48h.48c.96-.4,1.92-.8,2.88-1.2h.48Z"/><path class="cls-6" d="m117.76,7.43c-2.73.92-5.45,1.83-8.18,2.74-.22.07-.46.09-.69.14.39-1.19,1.6-1.06,2.45-1.37,3.3-1.19,6.66-2.23,10.02-3.28.36-.11.8.05,1.21.09-.4.24-.8.48-1.2.72-.16,0-.32,0-.48,0-.64.24-1.28.48-1.92.72-.4.08-.8.16-1.2.24Z"/><path class="cls-5" d="m205.77,328.32c-.55.3-1.07.75-1.67.89-2.13.51-4.28.94-6.44,1.34-.31.06-.67-.2-1.01-.32,0,0,0,0,0,0,1.34-.27,2.69-.52,4.02-.83.52-.12,1-.4,1.49-.6.32,0,.64,0,.96,0,.56-.16,1.12-.32,1.68-.48h.48c.16,0,.32,0,.48,0Z"/><path class="cls-8" d="m224.24,10.07c-.88-.24-1.76-.48-2.64-.72-.32-.08-.64-.16-.96-.24-1.04-.4-2.08-.8-3.12-1.2-.16,0-.32,0-.48,0-.48-.16-.96-.32-1.44-.48-.16,0-.32,0-.48,0,0-.08,0-.16,0-.24.97.13,1.98.12,2.9.4,1.89.58,3.73,1.31,5.58,2,.24.09.42.31.63.48Z"/><path class="cls-8" d="m206.25,4.56c1.04.15,2.09.22,3.11.47,1.43.34,2.84.79,4.25,1.23.21.07.37.3.56.46-1.12-.24-2.24-.48-3.36-.72-.24,0-.48,0-.72,0-.42-.21-.82-.46-1.26-.61-.85-.3-1.71-.55-2.57-.83Z"/><path class="cls-1" d="m130.23,328.8c-2.22-.52-4.44-1.03-6.65-1.57-.12-.03-.2-.23-.3-.35.13-.07.29-.23.4-.2,1.99.48,3.97.96,5.94,1.49.24.07.41.41.62.62Z"/><path class="cls-1" d="m121.35,6.48c.4-.24.8-.48,1.2-.72.16,0,.32,0,.48,0,1.68-.4,3.36-.8,5.04-1.2-.4.27-.76.68-1.2.8-1.69.49-3.41.9-5.12,1.31-.11.03-.26-.13-.4-.2Z"/><path class="cls-1" d="m117.76,325.45c-2.03-.64-4.06-1.26-6.08-1.92-.24-.08-.42-.31-.63-.48,2.22.72,4.44,1.44,6.66,2.18.04.01.04.15.06.22Z"/><path class="cls-8" d="m199.78,3.12c1.08-.38,5.17.64,5.76,1.44-.32,0-.64,0-.96,0-.48-.16-.96-.32-1.44-.48-.24,0-.48,0-.72,0-.88-.32-1.76-.64-2.64-.96Z"/><path class="cls-1" d="m202.17,328.8c-.5.21-.98.48-1.49.6-1.33.31-2.68.56-4.02.83.28-.23.53-.59.85-.68,1.29-.36,2.6-.66,3.92-.93.23-.05.5.11.75.18Z"/><path class="cls-1" d="m151.57,332.16c-1.84-.24-3.68-.48-5.52-.72,1.93-.45,3.78-.33,5.52.72Z"/><path class="cls-1" d="m187.31,331.44c-1.84.24-3.68.48-5.52.72.02-.08.02-.21.06-.22,1.78-.58,3.57-1.08,5.45-.5Z"/><path class="cls-1" d="m181.79.72c1.84.24,3.68.48,5.52.72-1.93.45-3.78.28-5.52-.72Z"/><path class="cls-1" d="m199.78,3.12c.88.32,1.76.64,2.64.96-.82.3-4.86-.59-5.46-1.21-.05-.05-.04-.15-.06-.23.16,0,.32,0,.48,0,.64.16,1.28.32,1.92.48.16,0,.32,0,.48,0Z"/><path class="cls-1" d="m146.05,1.44c1.84-.24,3.68-.48,5.52-.72-.02.08-.03.21-.07.22-1.79.46-3.56,1.11-5.45.5Z"/><path class="cls-1" d="m205.77,328.32c-.16,0-.32,0-.48,0,.14-.16.25-.42.43-.48,1.32-.41,2.64-.79,3.97-1.16.11-.03.26.13.39.2-.85.3-1.69.59-2.53.9-.44.16-.87.36-1.3.54-.16,0-.32,0-.48,0Z"/><path class="cls-1" d="m206.25,4.56c.86.27,1.73.52,2.57.83.44.16.84.41,1.26.61-.13.07-.29.23-.4.2-1.25-.37-2.5-.74-3.73-1.16-.18-.06-.29-.31-.43-.48.24,0,.48,0,.72,0Z"/><path class="cls-1" d="m210.81,6c1.12.24,2.24.48,3.36.72.32.16.64.32.96.48,0,.08,0,.16,0,.24-1.27-.28-2.55-.54-3.81-.86-.2-.05-.34-.38-.51-.58Z"/><path class="cls-1" d="m214.65,325.45c-.31.24-.58.58-.93.7-.87.3-1.77.5-2.66.74.18-.23.31-.6.53-.67,1.01-.3,2.04-.52,3.06-.77Z"/><path class="cls-1" d="m122.55,326.88c-1.2-.4-2.4-.8-3.6-1.2.91-.23,3.09.5,3.6,1.2Z"/><path class="cls-1" d="m137.42,330.24c-1.04-.24-2.08-.48-3.12-.72,1.2-.45,2.18.06,3.12.72Z"/><path class="cls-1" d="m134.3,3.36c1.04-.24,2.08-.48,3.12-.72-.94.66-1.92,1.17-3.12.72Z"/><path class="cls-1" d="m217.52,7.91c1.04.4,2.08.8,3.12,1.2-1.02.25-2.49-.31-3.12-1.2Z"/><path class="cls-1" d="m220.4,323.77c-.96.4-1.92.8-2.88,1.2.72-.98,1.69-1.35,2.88-1.2Z"/><path class="cls-1" d="m188.02,1.44c.88.16,1.76.32,2.64.48-.99.45-1.87.3-2.64-.48Z"/><path class="cls-1" d="m190.66,330.96c-.88.16-1.76.32-2.64.48.72-1.03,1.67-.82,2.64-.48Z"/><path class="cls-1" d="m142.7,1.92c.88-.16,1.76-.32,2.64-.48-.77.77-1.65.93-2.64.48Z"/><path class="cls-1" d="m145.34,331.44c-.88-.16-1.76-.32-2.64-.48.99-.45,1.87-.3,2.64.48Z"/><path class="cls-1" d="m130.95,4.08c.8-.24,1.6-.48,2.4-.72-.6.9-1.39,1.18-2.4.72Z"/><path class="cls-1" d="m133.58,329.52l-2.4-.72c.98-.38,1.76-.07,2.4.72Z"/><path class="cls-1" d="m140.3,330.72c-.8-.16-1.6-.32-2.4-.48.9-.33,1.79-.62,2.4.48Z"/><path class="cls-1" d="m137.9,2.64c.8-.16,1.6-.32,2.4-.48-.61,1.1-1.5.81-2.4.48Z"/><path class="cls-1" d="m195.22,330.24c-.64.16-1.28.32-1.92.48.44-.96,1.14-.87,1.92-.48Z"/><path class="cls-1" d="m193.3,2.16c.64.16,1.28.32,1.92.48-.78.39-1.48.48-1.92-.48Z"/><path class="cls-1" d="m118.95,7.19c.64-.24,1.28-.48,1.92-.72-.64.24-1.28.48-1.92.72Z"/><path class="cls-1" d="m204.81,328.32c-.56.16-1.12.32-1.68.48.37-.82.95-.9,1.68-.48Z"/><path class="cls-1" d="m203.13,4.08c.48.16.96.32,1.44.48-.68.46-1.15.25-1.44-.48Z"/><path class="cls-1" d="m128.79,4.56c.48-.16.96-.32,1.44-.48-.29.73-.75.94-1.44.48Z"/><path class="cls-1" d="m215.6,7.43c.48.16.96.32,1.44.48-.68.46-1.15.25-1.44-.48Z"/><path class="cls-1" d="m217.04,324.97c-.48.16-.96.32-1.44.48.29-.73.75-.94,1.44-.48Z"/><path class="cls-1" d="m141.98,330.96c-.24-.08-.48-.16-.72-.24.24.08.48.16.72.24Z"/><path class="cls-1" d="m192.1,330.72c-.24.08-.48.16-.72.24.24-.08.48-.16.72-.24Z"/><path class="cls-1" d="m191.38,1.92c.16.08.32.16.48.24-.16-.08-.32-.16-.48-.24Z"/><path class="cls-1" d="m141.5,2.16c.16-.08.32-.16.48-.24-.16.08-.32.16-.48.24Z"/><path class="cls-26" d="m108.82,12.47c.01.56.03,1.12.03,1.68,0,101.79,0,203.57,0,305.36,0,.76,0,1.52-.01,2.28-1.26-.3-2.52-.61-3.78-.91-.24-.14-.49-.29-.73-.43-.32-.08-.64-.17-.96-.25-.32-.16-.64-.32-.96-.49-.56-.16-1.12-.32-1.68-.48-.07-.03-.14-.04-.21-.04-.24-.79-.87-.7-1.48-.66-.07-.03-.14-.04-.22-.04-.32-.16-.64-.32-.96-.47-.07-.07-.14-.13-.22-.2.02-.63-.2-.88-.8-.49-.21-.03-.42-.06-.64-.09.01-.07.01-.14-.01-.21-.33-.23-.67-.46-1-.68-.55-.17-1.1-.35-1.65-.52-1-1.24-2.4-1.74-3.87-2.11-.59-.3-1.19-.6-1.78-.92-1.79-.98-3.58-1.98-5.37-2.97-1.03-.66-2.04-1.34-3.08-1.97-.7-.42-1.45-.77-2.17-1.16-1.2-.79-2.41-1.58-3.61-2.37-1.31-.97-2.61-1.96-3.95-2.89-.65-.45-1.36-.8-2.05-1.2-.15-.17-.31-.34-.46-.51-.97-.7-1.93-1.41-2.9-2.11-.18-.21-.35-.41-.53-.62-.23-.19-.46-.38-.69-.57-1.21-.94-2.42-1.88-3.64-2.81,0,0-.03-.02-.03-.02-.13-.18-.27-.36-.4-.54-.16-.16-.32-.32-.48-.48-.4-.31-.81-.62-1.21-.93-.32-.31-.65-.62-.97-.93-.24-.17-.48-.34-.71-.51,0,0,0,0,0,0-.16-.16-.32-.32-.48-.49-.24-.25-.46-.54-.73-.75-.84-.67-1.71-1.32-2.56-1.97,0-.06,0-.11,0-.17-.12-.13-.24-.27-.36-.4-1.28-1.28-2.57-2.55-3.85-3.83-.16-.16-.32-.32-.47-.47-.24-.24-.47-.49-.71-.73-.23-.33-.46-.65-.69-.98-.85-.82-1.7-1.64-2.56-2.46-.17-.15-.35-.31-.52-.46-.08-.08-.17-.15-.25-.23-.31-.48-.63-.96-.94-1.45-.31-.4-.62-.8-.93-1.2-.33-.39-.64-.79-.99-1.16-1.04-1.13-2.09-2.25-3.13-3.37,0,0,0,0,0,0-.15-.33-.3-.66-.45-.99-.25-.31-.49-.63-.74-.94-.63-.73-1.26-1.46-1.89-2.18-.41-.63-.82-1.26-1.22-1.89.07-1.07-.77-1.43-1.47-1.91-.35-.43-.7-.87-1.04-1.3,0,0-.04-.03-.04-.03-.57-.87-1.14-1.75-1.71-2.62-1.15-1.76-2.3-3.51-3.45-5.27.02-.08,0-.14-.07-.19-.18-.2-.35-.4-.53-.61,0,0,.07-.04.07-.04,0,0-.01-.08-.02-.08-.05-.22-.1-.45-.15-.67-.16-.45-.23-.96-.48-1.34-.42-.63-.96-1.18-1.45-1.76-.06,0-.13-.02-.19-.03,0,0,0,0,0,0-.4-.72-.8-1.44-1.2-2.16,0,0,0,0,0,0-.18-.47-.36-.94-.54-1.41-.94-1.77-1.88-3.55-2.81-5.32-.34-.78-.68-1.56-1.02-2.33-.47-1.25-.89-2.52-1.43-3.74-.29-.65-.76-1.22-1.15-1.83-.58-1.51-1.15-3.02-1.73-4.53-.32-.96-.64-1.92-.96-2.88-.15-.32-.3-.65-.45-.97-.18-.61-.35-1.22-.53-1.83-.13-.19-.27-.38-.4-.57-.48-1.37-.96-2.73-1.43-4.1-.17-.87-.35-1.74-.52-2.61-.09-.24-.17-.48-.26-.71-.15-.56-.31-1.12-.46-1.68-.07-.16-.15-.32-.22-.49-.3-.8-.6-1.61-.9-2.41-.03-.31-.07-.62-.1-.92-.02-.31-.03-.62-.05-.93-.13-.34-.26-.67-.39-1.01-.27-1.57-.54-3.14-.8-4.71-.2-.51-.41-1.02-.61-1.53-.04-.07-.07-.13-.1-.2,0-.55,0-1.09,0-1.64-.11-.27-.23-.55-.34-.82-.06-.03-.12-.03-.18-.02-.05-.39-.1-.77-.14-1.16-.21-1.4-.43-2.8-.64-4.2-.01-.44-.02-.88-.03-1.32-.15-.81-.3-1.61-.44-2.42-.02-.47-.05-.94-.07-1.41-.02-.24-.03-.48-.05-.73,0-.29-.01-.59-.02-.88.02-.42.13-.86.05-1.27-.12-.58-.37-1.13-.56-1.7-.06-.39-.12-.78-.17-1.17.02-.17.04-.34.05-.51,0-.72,0-1.43,0-2.15.24-.68.57-1.38-.22-1.95,0-.31,0-.62-.01-.93.07-.38.21-.76.2-1.13-.05-1.62-.15-3.24-.23-4.87.15.11.42.2.43.33.27,1.87.56,3.73.76,5.61.28,2.64.45,5.29.73,7.93.36,3.39.76,6.77,1.21,10.14.3,2.23.64,4.47,1.09,6.67.51,2.51,1.17,4.99,1.77,7.48.3,1.26.6,2.52.96,3.76.52,1.79,1.08,3.57,1.66,5.34.74,2.24,1.49,4.48,2.3,6.7.71,1.96,1.49,3.9,2.27,5.84.92,2.3,1.8,4.62,2.84,6.87,1.11,2.41,2.38,4.75,3.6,7.1,1.17,2.24,2.28,4.51,3.57,6.68,1.87,3.12,3.82,6.21,5.85,9.23,1.87,2.78,3.88,5.47,5.88,8.17,1.11,1.5,2.31,2.93,3.49,4.38,1.69,2.06,3.29,4.21,5.12,6.13,3.64,3.8,7.39,7.5,11.16,11.18,1.59,1.55,3.33,2.95,5.05,4.37,1.99,1.64,4.05,3.2,6.04,4.84,1.18.97,2.24,2.09,3.45,3.01.89.67,1.96,1.09,2.92,1.67,4.84,2.91,9.66,5.85,14.5,8.76,1.41.85,2.83,1.72,4.31,2.43,2.88,1.37,5.8,2.65,8.72,3.94,2.19.97,4.4,1.91,6.89,2.99.06-.84.14-1.41.14-1.97,0-101.45,0-202.89,0-304.34,0-.36.11-.78-.04-1.06-.13-.26-.6-.58-.83-.52-.8.21-1.56.55-2.33.87-2.64,1.13-5.3,2.22-7.91,3.42-2.12.97-4.18,2.08-6.25,3.13-1.34.68-2.71,1.34-4.01,2.1-2.57,1.5-5.11,3.05-7.64,4.62-2.32,1.43-4.7,2.79-6.88,4.41-3.23,2.38-6.35,4.9-9.43,7.46-3.09,2.57-6.14,5.19-9.08,7.92-2.66,2.47-5.17,5.12-7.73,7.7-.59.59-1.15,1.21-1.69,1.85-1.82,2.15-3.67,4.29-5.43,6.49-2.37,2.97-4.76,5.94-6.97,9.03-1.61,2.25-2.96,4.69-4.41,7.06-1.96,3.2-4.05,6.34-5.83,9.64-1.77,3.29-3.26,6.74-4.8,10.15-1.11,2.46-2.21,4.95-3.11,7.49-1.81,5.1-3.49,10.24-5.21,15.38-.32.97-.52,1.99-.79,2.98-.35,1.28-.79,2.54-1.07,3.83-.64,2.98-1.2,5.97-1.81,8.95-.25,1.23-.63,2.44-.79,3.68-.19,1.47-.16,2.98-.33,4.46-.25,2.12-.68,4.21-.88,6.33-.19,2.06-.12,4.14-.29,6.2-.15,1.88-.47,3.74-.75,5.61-.02.13-.28.22-.43.33.07-1.19.19-2.37.21-3.56.01-.65-.13-1.31-.2-1.96,0-.47.02-.94.03-1.41.07-.49.14-.98.2-1.47-.02-.17-.05-.35-.07-.52,0-.79,0-1.59-.01-2.38.02-.63.04-1.26.06-1.9.18-1.03.35-2.07.53-3.1.77-.51.54-1.1.14-1.71.06-.39.11-.78.17-1.16.86-.59.73-1.36.42-2.18.02-.47.05-.93.07-1.4.22-1.37.45-2.74.67-4.12.02-.23.04-.47.06-.7.05-.08.1-.15.16-.23.14-.57.28-1.14.42-1.71,0-.32-.01-.65-.02-.97.04-.22.08-.45.12-.67.71-.13.89-.44.34-1,0-.08.02-.15.05-.22.06-.25.12-.5.19-.75.04-.31.07-.62.11-.93.66-.33.85-.8.47-1.46-.02-.16-.03-.32-.05-.48.04-.14.08-.29.11-.43.2-.65.4-1.31.6-1.96.03-.23.07-.46.1-.68.2-.66.41-1.33.61-1.99.01-.15.03-.29.04-.44.09-.23.18-.45.27-.68.1-.28.2-.57.3-.85.02-.21.04-.42.06-.63.18-.56.36-1.12.54-1.69.04-.22.09-.44.13-.67.13-.34.26-.68.39-1.01,0-.07,0-.14,0-.22.03-.17.06-.34.1-.5.05-.15.1-.3.16-.45.38-1.05.76-2.09,1.14-3.14.03-.15.07-.29.1-.44.47-1.28.93-2.56,1.4-3.84.07-.17.14-.34.22-.51.11-.27.23-.54.34-.8,0-.12,0-.25-.01-.37.13-.25.26-.49.39-.74.07-.16.14-.33.21-.49.16-.56.32-1.12.49-1.68.08-.24.17-.48.25-.71.13-.25.27-.5.4-.75.1-.31.2-.62.3-.93.14-.25.27-.5.41-.75.03-.15.06-.3.09-.45.07,0,.14-.01.21-.03.15-.31.3-.63.44-.94.03-.23.07-.46.1-.69,0,0,.1.01.1.01l.1-.02c.13-.26.25-.53.38-.79.03-.14.06-.28.1-.41.14-.24.28-.48.42-.72.12-.32.23-.63.35-.95.07-.16.13-.32.2-.48.08-.16.16-.32.25-.48.23-.25.52-.46.67-.75,1.51-2.84,3.01-5.69,4.48-8.55.28-.54.41-1.14.61-1.72.46-.73.92-1.46,1.38-2.19.21-.09.52-.12.61-.28.71-1.17,1.38-2.36,2.06-3.54.53-.82,1.07-1.63,1.59-2.45,1.06-1.67,2.12-3.35,3.17-5.02.1-.15.19-.29.29-.44.08-.16.15-.32.23-.49.62-.8,1.25-1.6,1.87-2.4l1.7-2.41s0,0,0,0c.96-1.2,1.92-2.39,2.89-3.59.08-.08.16-.17.24-.25.73-.71,1.46-1.43,2.19-2.14.15-.24.31-.47.46-.71h0c.79-.89,1.58-1.78,2.37-2.67.85-1.02,1.71-2.04,2.56-3.06,1.51-1.46,3.02-2.91,4.52-4.37.34-.33.67-.68,1-1.02.31-.14.67-.21.91-.43,1.16-1.03,2.28-2.1,3.41-3.16.66-.62,1.29-1.26,1.94-1.89,1.12-.97,2.23-1.94,3.35-2.92.7-.48,1.42-.92,2.08-1.44,1.48-1.16,2.94-2.36,4.41-3.55,1.38-1.03,2.75-2.05,4.13-3.08.47-.33.94-.67,1.41-1,2.35-1.5,4.7-3.01,7.06-4.51,1.16-.74,2.34-1.45,3.51-2.17,1.03-.58,2.06-1.16,3.09-1.74.9-.37,1.83-.69,2.7-1.13.44-.22.78-.64,1.17-.97.03-.06.03-.13.01-.19.46-.2.93-.4,1.39-.61.4-.09.84-.11,1.21-.27,2.56-1.15,5.11-2.33,7.67-3.51.25-.16.49-.32.74-.48,0,0,0,0,0,0,.32-.15.65-.3.97-.46.07-.02.15-.04.23-.05.16-.07.33-.14.49-.21.16-.08.32-.16.48-.24.8.39,1.21.02,1.44-.72.07-.04.14-.07.21-.09.81-.29,1.62-.58,2.43-.86,0,0,0,0,0,0,.08,0,.16,0,.23.03.15.15.29.3.44.45.02.32.03.63.05.95.06.08.12.16.17.24Z"/><path class="cls-5" d="m24.41,252.93c1.15,1.76,2.3,3.51,3.45,5.27.57.87,1.14,1.75,1.71,2.62-1.37-.03-1.46-1.39-2.08-2.14-.93-1.1-1.58-2.43-2.35-3.66-.33-.53-.71-1.03-1.01-1.57-.05-.09.18-.34.28-.52Z"/><path class="cls-19" d="m105.05,320.87c1.26.3,2.52.61,3.78.91.02.26.03.52.05.78,0,.07,0,.15,0,.22-.89-.25-1.8-.45-2.66-.77-1.61-.6-3.21-1.24-4.79-1.94-.3-.13-.48-.56-.71-.86.56.16,1.12.32,1.68.48.32.16.64.32.96.49.32.08.64.17.96.25.24.14.49.29.73.43Z"/><path class="cls-19" d="m5.58,208.63c.3.8.6,1.61.9,2.41.07.16.15.32.22.49.15.56.31,1.12.46,1.68.09.24.17.48.26.71.17.87.35,1.74.52,2.61-.09,0-.18.01-.27.02-.15-.18-.37-.33-.43-.53-.65-2.14-1.28-4.28-1.87-6.44-.08-.28.13-.63.21-.95Z"/><path class="cls-19" d="m1.6,184.74c0,.29.01.59.02.88.02.24.03.48.05.73.02.47.05.94.07,1.42.15.81.3,1.61.44,2.42.01.44.02.88.03,1.32-.1.04-.2.09-.3.13-.23-1.26-.47-2.52-.7-3.78-.1-.58-.18-1.16-.26-1.74-.01-1.04-.02-2.08-.04-3.12.23.59.45,1.17.68,1.76Z"/><path class="cls-17" d="m82.51,309.83c1.79.99,3.58,1.98,5.37,2.97.58.32,1.18.61,1.78.92.09.15.19.31.28.46-.57-.23-1.15-.43-1.7-.7-1.66-.81-3.33-1.63-4.96-2.49-.32-.17-.52-.58-.77-.88,0-.09,0-.18,0-.27Z"/><path class="cls-19" d="m5.43,206.78c.02.31.03.62.05.93-.3-.45-.75-.87-.88-1.37-.43-1.6-.76-3.23-1.08-4.86-.08-.39.02-.82.04-1.22.23.27.45.54.68.8.27,1.57.54,3.14.8,4.71.13.34.26.67.39,1.01Z"/><path class="cls-19" d="m67.65,300.24c.68.4,1.4.75,2.05,1.2,1.34.94,2.64,1.92,3.95,2.89-.09.02-.17.04-.26.06-1.42-.88-2.86-1.72-4.24-2.66-.57-.39-1-.98-1.49-1.49Z"/><path class="cls-19" d="m36.44,270.07c1.04,1.12,2.09,2.24,3.13,3.37.34.37.66.77.99,1.16-.01.17-.03.33-.04.5-.38-.27-.82-.49-1.11-.84-.94-1.08-1.83-2.19-2.71-3.31-.17-.22-.17-.58-.25-.88Z"/><path class="cls-19" d="m82.51,309.83c0,.09,0,.18,0,.27-.48-.16-1-.26-1.43-.51-1.29-.76-2.55-1.59-3.82-2.39,0-.17,0-.33,0-.5.73.38,1.47.73,2.17,1.16,1.04.63,2.06,1.31,3.08,1.97Z"/><path class="cls-19" d="m9.78,221.2c.18.61.35,1.22.53,1.83.15.32.3.65.45.97.32.96.64,1.92.96,2.88-.23-.01-.45-.03-.68-.04-.28-.88-.57-1.75-.85-2.63-.36-1.11-.71-2.22-1.06-3.33.06,0,.13-.01.19-.03.15.11.31.22.46.34Z"/><path class="cls-23" d="m13.45,231.42c.39.61.86,1.18,1.15,1.83.53,1.22.96,2.49,1.43,3.74-.14-.03-.28-.06-.41-.1-.73-1.58-1.46-3.16-2.19-4.74,0-.24.02-.49.03-.73Z"/><path class="cls-5" d="m13.45,231.42c0,.24-.02.49-.03.73-.55-1.06-1.13-2.11-1.63-3.19-.31-.67-.5-1.4-.75-2.11.23.01.45.03.68.04.58,1.51,1.15,3.02,1.73,4.53Z"/><path class="cls-19" d="m17.04,239.33c.94,1.77,1.88,3.55,2.81,5.32-.14,0-.29,0-.43-.01-.81-1.68-1.62-3.36-2.44-5.04.02-.09.04-.17.06-.26Z"/><path class="cls-5" d="m9.33,220.87c-.06.01-.13.02-.19.03-.25-.41-.59-.79-.72-1.23-.3-1.02-.5-2.07-.74-3.11.09,0,.18-.01.27-.02.48,1.37.96,2.73,1.43,4.1-.03.07-.05.15-.05.23Z"/><path class="cls-5" d="m77.25,306.7c0,.17,0,.33,0,.5-1.45-.72-3.07-1.21-3.87-2.82.09-.02.17-.04.26-.06,1.2.79,2.41,1.58,3.61,2.37Z"/><path class="cls-17" d="m59.44,293.61c1.21.94,2.42,1.88,3.64,2.81-.01.09-.02.17-.03.26-.5-.26-1.08-.44-1.48-.81-.76-.7-1.42-1.5-2.12-2.26Z"/><path class="cls-5" d="m1.92,191.63c.1-.04.2-.09.3-.13.21,1.4.43,2.8.64,4.2-.31-.42-.82-.81-.89-1.27-.14-.92-.04-1.87-.04-2.81Z"/><path class="cls-22" d="m51.86,286.99c.86.66,1.72,1.3,2.56,1.97.27.22.49.5.73.75-.01.08-.03.17-.04.25-.07,0-.13,0-.2.02-1.02-1-2.04-2-3.06-3Z"/><path class="cls-22" d="m43.21,277.94c.85.82,1.7,1.64,2.56,2.46.02.22.03.45.05.67-.97-1.03-1.94-2.07-2.9-3.1.1,0,.2-.02.3-.03Z"/><path class="cls-25" d="m89.93,314.18c-.09-.15-.19-.31-.28-.46,1.47.37,2.87.87,3.87,2.11-.02.05-.03.1-.03.15-.11,0-.22,0-.33,0-.59-.37-1.19-.75-1.78-1.12-.48-.23-.97-.45-1.45-.68h0Z"/><path class="cls-23" d="m64.29,297.61c.97.7,1.93,1.41,2.9,2.11-.97-.7-1.93-1.41-2.9-2.11Z"/><path class="cls-25" d="m21.79,248.24c.49.58,1.03,1.13,1.45,1.76.26.38.33.89.48,1.34-.52-.62-1.05-1.24-1.57-1.86-.02-.1-.04-.2-.05-.31-.1-.31-.21-.63-.31-.94Z"/><path class="cls-22" d="m93.5,315.98c0-.05.01-.1.03-.15.55.17,1.1.35,1.65.52.33.23.67.46,1,.68.02.07.03.14.01.21-.68.24-2.09-.42-2.69-1.26Z"/><path class="cls-5" d="m17.04,239.33c-.02.09-.04.17-.06.26-1.07-.59-1.29-1.61-1.38-2.69.14.03.28.06.41.1.34.78.68,1.56,1.02,2.33Z"/><path class="cls-19" d="m33.35,265.95c.63.73,1.26,1.46,1.89,2.18.01.15.02.31.04.46,0,0-.09.07-.09.07-.63-.82-1.26-1.64-1.89-2.46.02-.09.03-.17.05-.26Z"/><path class="cls-5" d="m29.62,260.85c.35.43.7.87,1.04,1.3.18.47.36.94.55,1.41-1.19-.52-1.42-1.6-1.59-2.71Z"/><path class="cls-5" d="m33.35,265.95c-.02.09-.03.17-.05.26-1.06-.47-1.7-1.26-1.88-2.42.23.09.47.17.7.26.41.63.82,1.26,1.22,1.89Z"/><path class="cls-19" d="m3,196.86c.06-.02.12-.01.18.02.11.27.23.55.35.82,0,.55,0,1.09,0,1.64-.76-.7-1.29-1.45-.53-2.47Z"/><path class="cls-5" d="m22.15,249.49c.52.62,1.05,1.24,1.57,1.86.05.22.1.45.15.67-.95-.24-1.74-1.39-1.72-2.53Z"/><path class="cls-5" d="m20.4,246.05c.4.72.8,1.44,1.2,2.16-.47-.68-1.84-.86-1.2-2.16Z"/><path class="cls-25" d="m32.13,264.05c-.23-.09-.47-.17-.7-.26-.07-.08-.14-.15-.22-.23-.18-.47-.36-.94-.55-1.41.69.48,1.54.84,1.47,1.91Z"/><path class="cls-19" d="m99.03,318.53c.61-.05,1.24-.14,1.48.66-.82.52-1.15-.08-1.48-.66Z"/><path class="cls-19" d="m41.49,275.8c.31.48.63.96.94,1.45-.48-.55-.96-1.11-1.44-1.66.17.07.33.14.5.21Z"/><path class="cls-22" d="m56.34,290.71c.32.31.65.62.97.93.07.16.14.33.21.49-.58-.48-1.16-.97-1.74-1.45,0,0,.09,0,.09,0,.15.01.31.02.46.04Z"/><path class="cls-5" d="m19.42,244.63c.14,0,.29,0,.43.01.18.47.36.94.54,1.41-.88-.1-1.01-.7-.98-1.42Z"/><path class="cls-22" d="m91.38,314.85c.59.37,1.19.75,1.78,1.12-.6-.28-1.19-.56-1.79-.84,0-.09,0-.19,0-.28Z"/><path class="cls-19" d="m35.98,269.07c.15.33.3.66.45.99-.42-.47-.83-.93-1.25-1.4,0,0,.09-.07.09-.07.23.16.47.32.7.48Z"/><path class="cls-10" d="m4.23,201.06c-.23-.27-.45-.54-.68-.8.02-.24.04-.48.07-.72.2.51.41,1.02.61,1.53Z"/><path class="cls-22" d="m58.52,292.56c.16.16.32.32.48.48,0,.17,0,.34-.01.52-.32-.32-.65-.63-.97-.95.17-.02.33-.04.5-.05Z"/><path class="cls-17" d="m91.38,314.85c0,.09,0,.19,0,.28-.48-.32-.96-.64-1.44-.96.48.23.97.45,1.45.68Z"/><path class="cls-25" d="m41.49,275.8c-.17-.07-.33-.14-.5-.21-.16-.17-.32-.33-.48-.5.01-.17.03-.33.04-.5.31.4.62.8.93,1.2Z"/><path class="cls-25" d="m96.83,317.33c.61-.39.82-.14.8.49-.27-.17-.54-.33-.8-.49Z"/><path class="cls-25" d="m58.52,292.56c-.17.02-.33.04-.5.05-.17-.16-.33-.33-.5-.49-.07-.16-.14-.33-.21-.49.4.31.81.62,1.21.93Z"/><path class="cls-22" d="m97.85,318.02l.96.47c-.64.5-.84.08-.96-.47Z"/><path class="cls-24" d="m45.82,281.07c-.02-.22-.03-.45-.05-.67.23.33.46.65.69.98-.22-.1-.43-.21-.64-.31Z"/><path class="cls-5" d="m21.79,248.24c.1.31.21.63.31.94-.69-.05-.84-.39-.5-.97.07,0,.13.02.19.03Z"/><path class="cls-5" d="m54.92,289.98c.06-.01.13-.02.2-.02.17.08.35.16.52.24,0,0,0,0,0,0,.08.16.17.32.25.47,0,0-.09,0-.09,0-.29-.23-.58-.46-.87-.69Z"/><path class="cls-25" d="m63.04,296.68c.01-.09.02-.17.03-.26.23.19.46.38.69.57-.24-.1-.48-.21-.72-.31Z"/><path class="cls-17" d="m58.99,293.56c0-.17,0-.34.01-.52.13.18.27.36.4.54-.14,0-.28-.02-.41-.02Z"/><path class="cls-19" d="m43.21,277.94c-.1,0-.2.02-.3.03-.07-.16-.15-.32-.22-.49.17.15.35.31.52.46Z"/><path class="cls-5" d="m23.81,252.14c.18.2.35.4.53.61-.18-.2-.35-.4-.53-.61Z"/><path class="cls-24" d="m47.17,282.12c.16.16.32.32.47.47-.16-.16-.32-.32-.47-.47Z"/><path class="cls-24" d="m51.5,286.42c.12.13.24.27.36.4-.12-.13-.24-.27-.36-.4Z"/><path class="cls-19" d="m22.34,83.48c-.2.57-.34,1.18-.61,1.72-1.47,2.86-2.97,5.71-4.48,8.55-.15.29-.44.5-.67.75.19-.69.26-1.44.59-2.06,1.6-3.01,3.26-5.99,4.91-8.98.09,0,.18.02.27.03Z"/><path class="cls-19" d="m83.7,22.32c-1.17.72-2.35,1.43-3.51,2.17-2.36,1.5-4.71,3.01-7.06,4.51.01-.23.03-.45.04-.68,2.86-1.85,5.7-3.72,8.58-5.55.41-.26.95-.32,1.44-.48.09-.08.18-.16.27-.24.08-.01.15-.02.23-.02,0,.09,0,.19,0,.28Z"/><path class="cls-17" d="m100.94,13.9c-2.55,1.17-5.1,2.35-7.67,3.51-.37.17-.8.19-1.21.27.33-.31.61-.71.99-.9,2.18-1.09,4.36-2.16,6.58-3.17.63-.28,1.36-.33,2.05-.48,0,.1,0,.2,0,.3,0,0,0,0,0,0-.25.16-.49.32-.74.48Z"/><path class="cls-23" d="m31.15,70c-1.06,1.67-2.11,3.35-3.17,5.02-.52.82-1.06,1.63-1.59,2.45-.15,0-.29,0-.44.01-.03-.09-.05-.17-.08-.26,1.54-2.31,3.07-4.61,4.61-6.92.23-.1.45-.2.68-.3Z"/><path class="cls-24" d="m67.59,33.07c-1.47,1.18-2.92,2.39-4.41,3.55-.66.52-1.39.97-2.08,1.45-.02-.08-.05-.16-.08-.24,1.32-1.17,2.64-2.34,3.97-3.51.33-.24.65-.49.98-.73.38-.18.76-.36,1.14-.54.16,0,.32.02.48.02Z"/><path class="cls-24" d="m57.75,40.98c-.65.63-1.28,1.27-1.94,1.89-1.13,1.06-2.26,2.13-3.41,3.16-.24.21-.6.29-.91.43.42-.54.84-1.07,1.26-1.61.25-.24.49-.48.74-.71,1.26-1.06,2.53-2.12,3.79-3.18.16,0,.32.02.47.03Z"/><path class="cls-19" d="m67.59,33.07c-.16,0-.32-.02-.48-.02,1.14-1.51,2.66-2.53,4.36-3.3.09.08.17.17.26.25-1.38,1.03-2.75,2.05-4.13,3.08Z"/><path class="cls-19" d="m2.94,136.94c-.22,1.37-.45,2.74-.67,4.12-.1-.01-.2-.03-.3-.04-.07-1.45-.23-2.93.97-4.08Z"/><path class="cls-17" d="m57.75,40.98c-.16,0-.32-.02-.47-.03.93-1.43,2.18-2.47,3.75-3.13.02.08.05.16.07.24-1.12.97-2.23,1.94-3.35,2.91Z"/><path class="cls-22" d="m45.97,51.85c-.85,1.02-1.71,2.04-2.56,3.06-.08,0-.16-.01-.25-.02,0-.07,0-.14-.02-.21.79-1.1,1.47-2.31,2.83-2.83Z"/><path class="cls-22" d="m1.47,147.51c-.18,1.03-.35,2.07-.53,3.1,0-1.28,0-2.56,0-3.83.14-.17.28-.34.42-.5.03.41.07.82.1,1.24Z"/><path class="cls-17" d="m83.7,22.32c0-.09,0-.18,0-.28,1.12-.63,2.25-1.25,3.37-1.88-.09.14-.18.27-.27.41l-3.09,1.74Z"/><path class="cls-19" d="m38.13,60.67c-.96,1.2-1.92,2.39-2.89,3.59.64-1.45,1.38-2.83,2.89-3.59Z"/><path class="cls-25" d="m25.94,77.48c.15,0,.29,0,.44-.01-.68,1.18-1.35,2.38-2.06,3.54-.1.16-.4.19-.61.28.02-.15.03-.31.05-.46,0,0,0,0,0,0,.17-.24.33-.49.5-.73.05-.06.09-.13.14-.19.52-.81,1.03-1.62,1.55-2.43Z"/><path class="cls-23" d="m10.82,108.2c-.47,1.28-.93,2.56-1.4,3.84-.02-.25-.03-.5-.05-.75.07-.16.15-.32.22-.48.09-.47.18-.95.28-1.42.08-.16.15-.32.23-.49.15-.24.3-.49.45-.73.09.01.18.02.27.03Z"/><path class="cls-19" d="m40.56,58.28c-.73.71-1.46,1.43-2.19,2.14.89-1.11,1.78-2.22,2.68-3.32,0,.16,0,.31-.01.47,0,0,0,0,0,0-.15.24-.31.47-.46.71Z"/><path class="cls-24" d="m86.79,20.57c.09-.14.18-.27.27-.41,1.04-.56,2.07-1.13,3.11-1.69.16,0,.32,0,.48,0-.39.33-.73.75-1.17.97-.87.43-1.8.76-2.7,1.13Z"/><path class="cls-6" d="m23.76,80.83c-.02.15-.03.31-.05.46-.46.73-.92,1.46-1.38,2.19-.09,0-.18-.02-.27-.03.2-1.11.5-2.16,1.69-2.63Z"/><path class="cls-6" d="m33.54,66.67c-.62.8-1.25,1.6-1.87,2.4-.23-.87.39-1.79,1.62-2.4.08,0,.17,0,.25,0Z"/><path class="cls-25" d="m41.03,57.57c0-.16,0-.31.01-.47.07-.08.14-.16.21-.25.41-.48.82-.96,1.22-1.44,0,0,0,0,0,0,.23-.18.46-.35.69-.53.08,0,.16.01.25.02-.79.89-1.58,1.77-2.37,2.66Z"/><path class="cls-19" d="m3.55,133.33c0,.32.01.65.02.97-.14.57-.28,1.14-.42,1.71-.05.08-.1.15-.16.23-.83-1.16-.21-2.05.55-2.91Z"/><path class="cls-6" d="m25.94,77.48c-.52.81-1.03,1.62-1.55,2.43-.11-.1-.32-.28-.31-.29.58-.81,1.18-1.6,1.78-2.4.03.09.05.17.08.26Z"/><path class="cls-19" d="m33.54,66.67c-.08,0-.17,0-.25,0,.65-.8,1.3-1.61,1.95-2.41-.57.8-1.13,1.61-1.7,2.41Z"/><path class="cls-10" d="m2.2,142.46c.31.81.44,1.59-.42,2.18-.08-.38-.17-.76-.25-1.14.22-.35.45-.69.67-1.04Z"/><path class="cls-23" d="m9.32,112.47c-.38,1.05-.76,2.09-1.14,3.14-.01-.25-.03-.49-.04-.74.09-.16.17-.31.26-.47.08-.24.16-.49.24-.73.15-.4.31-.8.46-1.21.07-.02.15-.02.22,0Z"/><path class="cls-17" d="m107.93,10.8c-.81.29-1.62.58-2.43.86.47-1.25,1.48-.98,2.43-.86Z"/><path class="cls-17" d="m103.85,12.48c-.16.08-.32.16-.48.24-.16.07-.33.14-.49.21-.08.01-.15.03-.23.05-.09-.03-.18-.07-.27-.1.41-1.24,1.57-.83,2.42-1.11-.32.24-.64.48-.96.72Z"/><path class="cls-6" d="m71.73,29.99c-.09-.08-.17-.17-.26-.25.57-.48,1.14-.96,1.71-1.43-.01.23-.03.45-.04.68-.47.33-.94.67-1.41,1Z"/><path class="cls-17" d="m2.2,142.46c-.22.35-.45.69-.67,1.04.15-.83.29-1.65.44-2.48.1.01.2.03.3.04-.02.47-.05.93-.07,1.4Z"/><path class="cls-24" d="m5.48,125.42c-.2.65-.4,1.31-.6,1.96-.03-.25-.05-.5-.08-.76.14-.33.29-.66.43-.99.08-.07.16-.15.24-.22Z"/><path class="cls-22" d="m108.16,10.83c-.08-.02-.15-.03-.23-.03.32-.08.64-.16.96-.24,0,.56,0,1.11.01,1.67-.08,0-.17,0-.25,0-.02-.32-.03-.63-.05-.95-.15-.15-.29-.3-.44-.45Z"/><path class="cls-24" d="m6.19,122.75c-.2.66-.41,1.33-.61,1.99-.02-.25-.05-.5-.08-.75.07-.17.14-.34.21-.51.16-.25.31-.49.47-.74Z"/><path class="cls-23" d="m7.4,118.47c-.18.56-.36,1.12-.54,1.69-.04-.24-.08-.48-.13-.72.15-.32.31-.64.46-.96.07-.02.14-.02.21,0Z"/><path class="cls-17" d="m12.46,103.6c-.16.56-.32,1.12-.49,1.68-.07,0-.15,0-.22,0,.22-.57-.53-1.55.71-1.69Z"/><path class="cls-10" d="m1.47,147.51c-.03-.41-.07-.82-.1-1.24.08-.16.16-.32.24-.47.4.61.63,1.2-.14,1.71Z"/><path class="cls-6" d="m42.47,55.41c-.41.48-.82.96-1.22,1.44,0-.83.43-1.29,1.22-1.44Z"/><path class="cls-24" d="m4.82,128.3c.38.66.19,1.14-.47,1.46-.01-.33-.02-.65-.04-.98.17-.16.34-.32.51-.48Z"/><path class="cls-25" d="m103.85,12.48c.32-.24.64-.48.96-.72.16,0,.32,0,.48,0-.23.74-.64,1.11-1.44.72Z"/><path class="cls-22" d="m9.11,112.47c-.15.4-.31.8-.46,1.21-.43-.63-.29-1.03.46-1.21Z"/><path class="cls-24" d="m4.01,131.66c.55.56.37.87-.34,1,.11-.33.23-.67.34-1Z"/><path class="cls-22" d="m7.93,116.57c0,.07,0,.14,0,.22-.16.16-.32.32-.48.49-.51-.58-.09-.8.39-.99.03.1.06.19.09.29Z"/><path class="cls-17" d="m11.77,105.78c-.13.25-.26.49-.39.74-.53-.54-.49-.9.32-1.03.03.1.05.19.08.29Z"/><path class="cls-17" d="m5.24,125.64c-.14.33-.29.66-.43.99-.46-.59-.28-.91.43-.99Z"/><path class="cls-6" d="m31.15,70c-.23.1-.45.2-.68.3-.02-.7.12-1.18.97-.74-.1.15-.19.29-.29.44Z"/><path class="cls-17" d="m14.13,99.98c-.07.02-.14.03-.21.03.15-.32.31-.65.46-.97-.08.31-.17.63-.25.94Z"/><path class="cls-23" d="m14.13,99.98c.08-.31.17-.63.25-.94.06-.02.13-.02.2,0-.15.31-.3.63-.44.94Z"/><path class="cls-17" d="m13.12,102.14c-.13.25-.27.5-.4.75-.47-.58-.1-.7.4-.75Z"/><path class="cls-6" d="m53.49,44.13c-.25.24-.49.48-.74.71-.18-.59-.12-.65.74-.71Z"/><path class="cls-6" d="m65.97,33.58c-.33.24-.65.49-.98.73.33-.24.65-.49.98-.73Z"/><path class="cls-22" d="m7.19,118.47c-.15.32-.31.64-.46.96.15-.32.31-.64.46-.96Z"/><path class="cls-17" d="m4.82,128.3c-.17.16-.34.32-.51.48.15-.32.31-.65.46-.97.02.16.03.32.05.48Z"/><path class="cls-17" d="m13.83,100.46c-.14.25-.27.5-.41.75.14-.25.27-.5.41-.75Z"/><path class="cls-23" d="m7.45,117.27c.16-.16.32-.32.48-.49-.13.34-.26.68-.39,1.01-.03-.18-.06-.35-.09-.53Z"/><path class="cls-23" d="m15.77,96.41c-.14.24-.28.48-.42.72.14-.24.28-.48.42-.72Z"/><path class="cls-24" d="m4.24,130.69c-.06.25-.12.5-.19.75.06-.25.12-.5.19-.75Z"/><path class="cls-17" d="m10.82,108.2c-.09-.01-.18-.02-.27-.03.15-.33.31-.65.46-.98,0,.17.02.34.03.5-.07.17-.14.34-.22.51Z"/><path class="cls-6" d="m24.26,80.1c-.17.24-.33.49-.5.73.17-.24.33-.49.5-.73Z"/><path class="cls-25" d="m102.38,12.87c.09.03.18.07.27.1-.32.15-.65.3-.97.46,0-.1,0-.2,0-.3.23-.08.47-.17.7-.25Z"/><path class="cls-23" d="m6.5,121.63c-.09.23-.18.45-.27.68.07-.35.14-.7.21-1.04.02.12.04.24.06.36Z"/><path class="cls-6" d="m43.16,54.89c-.23.18-.46.35-.69.53.22-.25.45-.5.67-.74.02.07.02.14.02.21Z"/><path class="cls-24" d="m6.5,121.63c-.02-.12-.04-.24-.06-.36.12-.16.24-.33.37-.49-.1.28-.2.57-.3.85Z"/><path class="cls-23" d="m15.25,97.54c-.13.26-.25.53-.38.79,0-.17-.02-.33-.02-.5.13-.1.27-.19.4-.29Z"/><path class="cls-23" d="m11.04,107.69c0-.17-.02-.34-.03-.5.12-.1.25-.2.37-.3-.12.27-.23.54-.34.8Z"/><path class="cls-17" d="m14.85,97.83c0,.17.02.33.02.5,0,0-.1.02-.1.02,0,0-.1-.01-.1-.01.06-.17.11-.34.17-.51Z"/><path class="cls-19" d="m16.32,94.98c-.07.16-.13.32-.2.48.07-.16.13-.32.2-.48Z"/><path class="cls-6" d="m10.1,108.89c-.08.16-.15.32-.23.49.08-.16.15-.32.23-.49Z"/><path class="cls-22" d="m9.59,110.8c-.07.16-.15.32-.22.48.07-.16.15-.32.22-.48Z"/><path class="cls-22" d="m8.4,114.41c-.09.16-.17.31-.26.47.09-.16.17-.31.26-.47Z"/><path class="cls-17" d="m5.72,123.48c-.07.17-.14.34-.21.51.07-.17.14-.34.21-.51Z"/><path class="cls-23" d="m7.93,116.57c-.03-.1-.06-.19-.09-.29.06-.07.13-.14.19-.21-.03.17-.06.34-.1.5Z"/><path class="cls-22" d="m90.66,18.48c-.16,0-.32,0-.48,0,.17-.06.33-.13.5-.19.02.07.02.13-.01.19Z"/><path class="cls-23" d="m11.77,105.78c-.03-.1-.05-.19-.08-.29.03-.06.05-.13.06-.2.07,0,.15,0,.22,0-.07.16-.14.33-.21.49Z"/><path class="cls-17" d="m83.46,22.06c-.09.08-.18.16-.27.24.09-.08.18-.16.27-.24Z"/><path class="cls-15" d="m224.55,319.92c-.01-.6-.03-1.2-.03-1.8,0-101.88,0-203.76,0-305.65,0-.48.02-.96.03-1.44.54.16,1.07.32,1.61.49-.16,1.05-.46,2.1-.46,3.15-.02,98.13-.03,196.27,0,294.4,0,4.24-.51,8.52.45,12.74-.4.1-.8.19-1.2.29,0-.08,0-.15-.01-.23-.13-.65-.26-1.3-.39-1.95Z"/><path class="cls-8" d="m308.15,253.97c.74-1.27,1.48-2.54,2.21-3.81.14-.18.28-.36.42-.53,0,0,0-.01,0-.01.15-.02.3-.04.45-.06-.3.71-.51,1.46-.91,2.11-1.43,2.35-2.92,4.67-4.41,6.99-.17.27-.55.4-.83.6-.02-.17-.04-.34-.05-.51.1-.15.2-.29.3-.44.07-.16.15-.32.22-.48,0,0,0,0,0,0,.24-.33.49-.65.73-.98.03-.1.07-.2.1-.3.21-.3.41-.6.62-.9.04-.06.09-.12.12-.18.01-.02-.02-.07-.04-.11.35-.47.71-.93,1.07-1.4Z"/><path class="cls-2" d="m320.38,229.52c.11-.22.22-.44.33-.66.13-.19.26-.37.38-.56.07-.02.14-.02.21,0-.21.76-.35,1.54-.64,2.27-.51,1.3-1.09,2.57-1.67,3.84-.79,1.73-1.61,3.46-2.42,5.18-.15,0-.3.02-.44.02-.03-.09-.06-.18-.09-.27.1-.23.19-.47.29-.7.16-.32.32-.64.48-.95.06-.08.12-.16.18-.23.42-.96.84-1.93,1.26-2.89.06-.16.13-.32.19-.48.1-.24.19-.47.29-.71.06-.08.13-.16.19-.24.18-.48.35-.95.53-1.43.07-.08.13-.17.2-.25.1-.31.19-.63.29-.94.15-.33.3-.66.44-.99Z"/><path class="cls-8" d="m270.05,296.67c.24-.15.48-.3.72-.46.24-.24.48-.49.72-.73,0,0,0,0,0,0,.32-.24.64-.49.96-.73.16-.15.32-.31.48-.46.23-.17.45-.34.68-.51.42-.31.83-.62,1.25-.92.23-.11.46-.22.69-.33,0,.09.01.19.02.28-1.05.94-2.08,1.9-3.16,2.8-1.58,1.32-3.19,2.61-4.83,3.86-.38.29-.93.37-1.4.54.02-.15.04-.31.05-.46.39-.25.78-.51,1.17-.76.25-.23.49-.45.74-.68,0,0,0,0,0,0,.64-.48,1.28-.97,1.92-1.45Z"/><path class="cls-2" d="m326.36,212.74c.03-.36.06-.71.1-1.07.13-.05.27-.09.41-.14.09.16.18.32.27.48-.33,1.27-.44,2.65-1.03,3.78-.86,1.65-.52,3.76-2.05,5.11-.08,0-.16,0-.25-.01.07-.32.14-.64.2-.96.07-.24.14-.48.21-.72.1-.32.2-.63.3-.95.13-.32.26-.65.4-.97.1-.4.21-.8.31-1.19.06-.16.13-.32.19-.49.02-.07.04-.14.04-.21.06-.09.12-.17.19-.26.1-.48.2-.96.31-1.44.08-.24.16-.48.24-.72,0,0-.01,0-.01,0,.06-.08.12-.17.18-.25Z"/><path class="cls-9" d="m227.8,321.22c.17-.11.34-.23.51-.34.32-.16.64-.31.96-.47.24-.07.48-.15.72-.22.19-.15.38-.29.57-.44,1.35-.55,2.7-1.11,4.06-1.65.36-.14.73-.24,1.1-.36,0,.17,0,.33.01.5-1.49.64-2.96,1.31-4.46,1.92-1.13.46-2.3.83-3.45,1.25-.01-.07-.02-.13-.02-.2Z"/><path class="cls-2" d="m263.58,301.47c.24-.08.47-.17.71-.25.02.08.04.17.05.25-1.98,1.44-3.95,2.9-5.96,4.3-.7.49-1.5.84-2.25,1.25,0-.08,0-.16.01-.24v-.27s0,0,0,0c.24-.16.48-.32.72-.48.4-.25.79-.49,1.19-.74.24-.16.47-.31.71-.47,0,0,0-.01,0,0,.32-.23.64-.47.97-.7.96-.64,1.92-1.28,2.88-1.92.32-.24.65-.47.97-.71Z"/><path class="cls-9" d="m305.04,258.75c.02.17.04.34.05.51-1.45,2.08-2.9,4.15-4.35,6.23-.17,0-.34-.01-.51-.02,1.07-1.57,2.13-3.15,3.23-4.71.49-.7,1.05-1.34,1.58-2.01Z"/><path class="cls-2" d="m275.57,292.81c0-.09-.01-.19-.02-.28.16-.3.33-.6.49-.9,1.7-1.58,3.4-3.17,5.09-4.76.22-.01.45-.02.67-.03-.78.82-1.54,1.66-2.36,2.44-1.27,1.2-2.58,2.36-3.88,3.53Z"/><path class="cls-8" d="m300.23,265.47c.17,0,.34.01.51.02-1.04,2.36-2.8,4.17-4.54,6-.01-.17-.02-.33-.03-.5.09-.15.19-.3.28-.45.39-.56.79-1.11,1.18-1.67.25-.32.49-.65.74-.97.62-.81,1.24-1.62,1.86-2.43Z"/><path class="cls-9" d="m246.31,312.55c1.6-.97,3.2-1.95,4.8-2.92.25-.16.5-.32.74-.47.4-.15.79-.3,1.19-.45,0,.15-.01.29-.02.44-1.9,1.13-3.8,2.27-5.71,3.37-.29.17-.67.18-1.01.27-.01-.08,0-.15.01-.23Z"/><path class="cls-21" d="m281.8,286.84c-.22.01-.45.02-.67.03,1.99-1.99,3.99-3.97,5.98-5.96-.01.22-.02.43-.03.65-1.76,1.76-3.52,3.52-5.28,5.28Z"/><path class="cls-9" d="m329.47,199.78c.1-.64.21-1.28.31-1.91.06-.24.12-.48.18-.73.13-.25.27-.5.4-.75.07.66.24,1.32.18,1.97-.1.96-.36,1.91-.55,2.86-.08.16-.16.32-.23.48-.21.17-.42.34-.63.52-.02-.33-.04-.65-.06-.98.13-.48.26-.97.4-1.45Z"/><path class="cls-8" d="m316.13,239.6c.15,0,.3-.02.44-.02-.49,1.12-.96,2.24-1.47,3.35-.39.84-.8,1.68-1.25,2.48-.11.2-.43.27-.65.41,0-.17-.01-.34-.02-.5.09-.23.18-.47.27-.7.09-.16.18-.31.27-.47.15-.32.3-.65.45-.97.23-.4.46-.8.69-1.2.03-.07.05-.15.05-.23l.24-.48s0,0,0,0c.31-.57.61-1.14.92-1.71,0,0,.06.03.06.03Z"/><path class="cls-2" d="m290.68,277.48c.48-.71.96-1.42,1.44-2.13.07-.09.14-.18.22-.27.8-.89,1.6-1.79,2.4-2.68.09.02.18.04.26.06-.25.48-.41,1.04-.76,1.42-1.15,1.23-2.37,2.4-3.56,3.6Z"/><path class="cls-9" d="m239.61,315.95c1.75-.92,3.49-1.84,5.24-2.76,0,.17.01.34.02.5-1.68.81-3.36,1.63-5.03,2.44-.07-.06-.15-.13-.22-.19Z"/><path class="cls-2" d="m287.08,281.56c.01-.22.02-.43.03-.65,1.11-1.06,2.21-2.12,3.32-3.19-.01.16.03.37-.05.46-1.09,1.14-2.2,2.26-3.31,3.38Z"/><path class="cls-9" d="m330.68,193.06c.16-.49.33-.99.49-1.48.08,1.04.17,2.07.25,3.11-.15.18-.31.35-.46.52-.18.24-.37.48-.55.72.03-.72.06-1.44.1-2.15.06-.24.12-.49.18-.73Z"/><path class="cls-21" d="m313.17,245.32c0,.17.01.34.02.5-.09.23-.18.46-.27.69-.08.16-.17.32-.25.48-.48.85-.95,1.71-1.43,2.56-.15.02-.3.04-.45.06.8-1.43,1.59-2.87,2.39-4.3Z"/><path class="cls-8" d="m253.02,309.14c0-.15.01-.29.02-.44.95-.65,1.91-1.31,2.86-1.96.08.01.16.02.24.04,0,.08,0,.16-.01.24-.76,1.11-1.84,1.75-3.11,2.13Z"/><path class="cls-9" d="m323.8,220.88c.08,0,.16,0,.25.01,0,.32-.01.64-.02.95-.09.16-.17.31-.26.47-.42.79-.08,1.94-1.16,2.41.02-.39.03-.78.05-1.17.09-.16.17-.32.26-.48.3-.73.59-1.46.89-2.2Z"/><path class="cls-9" d="m332.42,183.22c0,.96-.01,1.92-.02,2.88-.18.49-.35.99-.53,1.48-.08,0-.15,0-.23.02.01-.34.02-.68.04-1.02.06-.49.13-.97.19-1.46,0-.15.01-.31.02-.46.18-.48.35-.96.53-1.44Z"/><path class="cls-8" d="m239.61,315.95c.07.06.15.13.22.19-.53,1.03-1.77,1.5-2.49.96.76-.38,1.51-.77,2.27-1.15Z"/><path class="cls-20" d="m331.64,187.6c.08-.02.15-.03.23-.02-.05.47-.09.93-.14,1.4-.18.4-.37.8-.55,1.2-.54-.99-.14-1.8.46-2.58Z"/><path class="cls-9" d="m331.18,190.19c.18-.4.37-.8.55-1.2.14.87.72,1.83-.53,2.39,0-.4-.02-.8-.02-1.2Z"/><path class="cls-8" d="m244.86,313.69c0-.17-.01-.34-.02-.5.49-.21.97-.43,1.46-.64-.02.08-.02.15-.01.23-.14.84-.74.95-1.43.91Z"/><path class="cls-21" d="m327.24,209.88c.17-.58.34-1.16.52-1.74-.05.57-.11,1.14-.16,1.71-.12.01-.24.02-.36.03Z"/><path class="cls-8" d="m235.74,318.25c0-.17,0-.33-.01-.5.47-.19.94-.38,1.41-.57.03,1-.64,1.1-1.4,1.08Z"/><path class="cls-9" d="m327.97,207.26c-.02-.17-.03-.33-.05-.5.13-.26.26-.52.38-.78.07-.08.13-.15.2-.23.43.71.66,1.36-.53,1.5Z"/><path class="cls-8" d="m327.6,209.85c.05-.57.11-1.14.16-1.71.04-.07.08-.14.12-.21.71.72.63,1.3-.28,1.91Z"/><path class="cls-8" d="m327.13,212.01c-.09-.16-.18-.32-.27-.48.08-.32.15-.64.23-.96.05-.08.09-.16.14-.24.55.59.71,1.16-.1,1.68Z"/><path class="cls-8" d="m264.34,301.47c-.02-.08-.04-.17-.05-.25.24-.23.49-.46.73-.7.23-.02.46-.04.7-.06-.07.87-.73.93-1.37,1.01Z"/><path class="cls-18" d="m265.71,300.46c-.23.02-.46.04-.7.06.41-.32.81-.64,1.22-.96-.02.15-.04.31-.05.46-.15.15-.31.29-.46.44Z"/><path class="cls-2" d="m296.17,270.98c0,.17.02.33.03.5-.32.24-.64.48-.96.72,0-.16,0-.32.01-.48.15-.16.31-.32.46-.48.15-.09.31-.18.46-.27Z"/><path class="cls-9" d="m328.6,204.83c-.01-.17-.03-.33-.04-.5.17-.24.35-.49.52-.73.39.62.21,1.02-.48,1.23Z"/><path class="cls-3" d="m224.94,321.87c.01.07.02.15.01.23-.16.16-.32.32-.48.48-.08,0-.15-.01-.23-.02.07-.32.15-.64.22-.95.16.09.32.18.48.26Z"/><path class="cls-21" d="m329.08,203.6c-.17.24-.35.49-.52.73.14-.41.28-.82.42-1.23.03.17.07.33.1.5Z"/><path class="cls-8" d="m227.8,321.22c0,.07.01.13.02.2-.17.22-.33.44-.5.66-.08-.16-.17-.32-.25-.48.24-.13.49-.25.73-.38Z"/><path class="cls-20" d="m321.42,227.37c.12-.25.23-.51.35-.76.04.1.08.19.12.29-.16.16-.31.32-.47.47Z"/><path class="cls-20" d="m321.83,226.37c.15-.4.3-.79.45-1.19.01.17.03.33.04.5-.08.24-.17.48-.25.72-.08,0-.16-.02-.24-.03Z"/><path class="cls-9" d="m227.08,321.6c.08.16.17.32.25.48-.32-.09-.64-.18-.96-.27.24-.07.48-.14.71-.21Z"/><path class="cls-2" d="m322.32,225.67c-.01-.17-.03-.33-.04-.5.1-.07.19-.15.29-.22-.08.24-.16.48-.25.71Z"/><path class="cls-13" d="m295.25,271.73c0,.16,0,.32-.01.48-.08.08-.16.17-.24.25-.09-.02-.18-.04-.26-.06.17-.22.34-.45.52-.67Z"/><path class="cls-8" d="m312.67,247c.08-.16.17-.32.25-.48-.08.16-.17.32-.25.48Z"/><path class="cls-8" d="m329.75,201.69c.08-.16.16-.32.23-.48-.08.16-.16.32-.23.48Z"/><path class="cls-8" d="m330.96,195.22c.15-.17.31-.35.46-.52-.15.17-.31.35-.46.52Z"/><path class="cls-8" d="m323.77,222.32c.09-.16.17-.31.26-.47-.09.16-.17.31-.26.47Z"/><path class="cls-2" d="m321.83,226.37c.08,0,.16.02.24.03-.06.17-.12.34-.18.51-.04-.1-.08-.19-.12-.29.02-.08.04-.16.06-.24Z"/><path class="cls-9" d="m244.84,19.69c-1.62-.8-3.22-1.63-4.86-2.38-2.71-1.24-5.43-2.45-8.16-3.65-.9-.39-1.83-.71-2.74-1.06,0-.21,0-.43-.01-.64,1.03.33,2.09.61,3.09,1.01,1.88.76,3.77,1.53,5.58,2.43,2.4,1.19,4.74,2.51,7.11,3.78,0,.17-.01.34-.02.5Z"/><path class="cls-9" d="m325.94,119.19c-.34-1.2-.69-2.39-1.03-3.59-.14-.32-.27-.64-.41-.96-.03-.24-.06-.48-.1-.71.04-.08.07-.17.11-.25.15.01.3.02.45.03.41,1.45.78,2.91,1.23,4.34.56,1.76,1.25,3.48,1.79,5.25.18.59.1,1.26.13,1.9-.02.09-.04.17-.06.26-.13-.02-.27-.03-.4-.05-.04-.23-.07-.46-.11-.69-.14-.4-.27-.8-.41-1.21-.11-.48-.21-.95-.31-1.43-.06-.16-.11-.32-.17-.48-.17-.56-.34-1.12-.52-1.67-.07-.24-.13-.48-.2-.73Z"/><path class="cls-8" d="m309.89,82c-1.77-2.79-3.54-5.58-5.32-8.37.01-.24.02-.49.04-.73.42.39.93.73,1.23,1.19,1.55,2.37,3.04,4.76,4.54,7.16.14.22.13.52.19.78-.23-.01-.45-.02-.68-.04Z"/><path class="cls-2" d="m262.85,30.94c-2.27-1.53-4.54-3.06-6.81-4.6-.16-.11-.28-.28-.41-.42.17-.01.34-.03.5-.04.85.45,1.75.82,2.55,1.35,1.8,1.2,3.55,2.47,5.32,3.72.15.1.22.31.33.47-.02.08-.04.17-.05.25-.16,0-.31-.02-.47-.02-.08-.08-.16-.15-.25-.23-.24-.16-.48-.32-.72-.48Z"/><path class="cls-9" d="m253.74,24.72c-.8-.41-1.59-.81-2.39-1.22-.08-.07-.16-.13-.25-.2-1.71-.98-3.42-1.95-5.12-2.94-.16-.09-.27-.27-.4-.41,0-.17.01-.34.02-.51.87.5,1.74.99,2.61,1.5,1.85,1.09,3.69,2.19,5.53,3.28,0,.17,0,.33,0,.5Z"/><path class="cls-9" d="m304.61,72.91c-.01.24-.02.49-.04.73-.77-1.06-1.55-2.12-2.31-3.19-.9-1.26-1.79-2.53-2.68-3.8.23,0,.45.01.68.02,1.45,2.08,2.9,4.16,4.34,6.23Z"/><path class="cls-8" d="m328.86,130.55c.02-.35.03-.7.05-1.05.04-.39.08-.79.12-1.18,0,0,.03-.02.03-.02.15.16.39.29.44.47.25.93.65,1.88.64,2.82-.02,1.84,1.18,3.55.54,5.44-.14-.11-.28-.22-.42-.33-.03-.15-.06-.31-.09-.46-.15-.87-.31-1.75-.46-2.62,0-.08,0-.17.01-.25-.29-.93-.58-1.86-.87-2.79Z"/><path class="cls-8" d="m300.26,66.67c-.23,0-.45-.01-.68-.02-.18-.31-.37-.63-.55-.94-.23-.25-.45-.49-.68-.74,0,0,0,0,0,0-.12-.23-.22-.48-.37-.7-.92-1.28-1.85-2.56-2.78-3.84,0,0,.04-.03.04-.03.08.02.19,0,.23.06,1.6,2.06,3.19,4.13,4.79,6.2Z"/><path class="cls-9" d="m309.89,82c.23.01.45.02.68.04.92,1.67,1.86,3.33,2.76,5.02.2.37.28.8.41,1.2-.03.09-.05.18-.08.27-.92-1.56-1.83-3.11-2.74-4.67-.36-.61-.69-1.24-1.04-1.85Z"/><path class="cls-8" d="m290.43,54.68c1.82,1.74,3.7,3.42,4.82,5.73,0,0-.04.03-.04.03-.18-.07-.41-.09-.52-.22-1.52-1.76-3.03-3.54-4.54-5.31.09-.08.18-.16.28-.24Z"/><path class="cls-21" d="m272.85,38.44c-1.48-1.23-2.97-2.46-4.45-3.69.15,0,.3.01.45.02,1.34,1.05,2.68,2.1,4.02,3.15.02.15.05.29.07.44-.03.03-.06.06-.09.08Z"/><path class="cls-2" d="m323.06,110.53c-.02-.15-.04-.3-.06-.45-.15-.4-.29-.8-.44-1.2-.09-.24-.19-.48-.28-.72-.06-.16-.13-.32-.19-.48-.1-.47-.19-.93-.29-1.4.03-.1.07-.21.1-.31.54,1.14,1.08,2.27,1.6,3.42.2.45.41.9.51,1.38.05.23-.16.51-.25.76-.24-.33-.48-.67-.72-1Z"/><path class="cls-21" d="m277.33,42.22c-.5-.33-1.05-.6-1.49-.99-1.02-.9-1.99-1.86-2.99-2.79.03-.03.06-.05.09-.08.15.01.31.02.46.03.08.08.16.15.24.23.24.17.48.34.71.51.33.31.66.61.98.92.23.17.46.35.69.52.4.39.81.77,1.21,1.16.03.16.06.33.09.49Z"/><path class="cls-21" d="m330.26,136.69c.14.11.28.22.42.33.13,1.35.27,2.7.4,4.05-.27-1.46-.55-2.92-.82-4.38Z"/><path class="cls-21" d="m229.07,11.97c0,.21,0,.43.01.64-.98-.36-1.95-.72-2.93-1.08-.54-.16-1.07-.32-1.61-.49,0-.15-.02-.44,0-.44.38-.04.76-.06,1.14-.07.32.16.64.32.96.48.09,0,.17-.01.25-.02.23.09.47.19.71.28.32.15.64.3.96.45.17.08.34.16.5.25,0,0,.01,0,.01,0Z"/><path class="cls-9" d="m315.62,92.79c-.11-.31-.22-.62-.33-.94.03-.08.06-.16.09-.24.15.01.31.02.46.03.59,1.43,1.18,2.86,1.77,4.3,0,0-.11,0-.11,0-.15-.09-.29-.18-.44-.27-.41-.87-.83-1.75-1.24-2.62-.07-.08-.13-.17-.2-.25Z"/><path class="cls-3" d="m331.22,143.39c-.01-.15-.03-.3-.04-.45.04-.25.07-.49.11-.74.18.06.51.12.51.19.07,1.14.09,2.28.12,3.43-.15,0-.3-.01-.45-.02-.02-.23-.04-.47-.06-.7-.06-.57-.13-1.14-.19-1.71Z"/><path class="cls-2" d="m280.58,45.35c-.95-.81-1.89-1.62-2.84-2.42-.02-.15-.04-.3-.06-.45.17-.01.34-.02.52-.03.96.96,1.91,1.93,2.87,2.89-.16,0-.33,0-.49.01Z"/><path class="cls-8" d="m315.84,91.64c-.15-.01-.31-.02-.46-.03-.4-.64-.8-1.28-1.21-1.91-.17-.39-.34-.78-.51-1.16.03-.09.05-.18.08-.27.23.13.57.21.67.4.51.98.96,1.98,1.42,2.98Z"/><path class="cls-8" d="m253.74,24.72c0-.17,0-.33,0-.5.98.29,2.01.5,2.4,1.65-.17.01-.34.03-.5.04-.63-.4-1.26-.8-1.89-1.2Z"/><path class="cls-2" d="m318.74,99.52c-.03-.16-.07-.32-.1-.48.04-.08.07-.16.11-.25.15,0,.3.01.46.02.33,1.03.65,2.06.98,3.08-.09.01-.18.02-.27.04-.31-.65-.62-1.29-.92-1.94-.08-.16-.17-.32-.25-.48Z"/><path class="cls-2" d="m290.43,54.68c-.09.08-.18.16-.28.24-.15-.08-.29-.16-.44-.24-.64-.71-1.29-1.43-1.93-2.14,0-.16,0-.33,0-.49.88.88,1.76,1.75,2.64,2.63Z"/><path class="cls-11" d="m263.81,31.64c.16,0,.31.02.47.02.63.4,1.26.8,1.89,1.21.08.08.16.16.23.24.09.15.18.31.28.46-1.34-.08-2.14-.96-2.87-1.93Z"/><path class="cls-21" d="m332.35,150.88c-.16-.17-.31-.34-.47-.51-.06-.4-.12-.8-.18-1.21.03-.57.05-1.14.07-1.71.22.49.43.99.65,1.48-.02.65-.05,1.3-.07,1.95Z"/><path class="cls-8" d="m319.2,98.82c-.15,0-.3-.01-.46-.02-.42-.96-.83-1.91-1.25-2.87,0,0,.11,0,.11,0,1.14.63,1.36,1.76,1.59,2.89Z"/><path class="cls-3" d="m332.42,148.93c-.22-.49-.43-.99-.65-1.48,0-.15-.02-.3-.03-.45.07-.25.14-.49.22-.74.87.76.82,1.68.46,2.66Z"/><path class="cls-8" d="m266.68,33.58c-.09-.15-.18-.31-.28-.46,1.2-.02,2.01.55,2.44,1.65-.15,0-.3-.01-.45-.02,0,0,0,0,0,0-.24-.16-.47-.32-.71-.48-.33-.23-.66-.46-1-.68Z"/><path class="cls-8" d="m266.17,32.87c-.63-.4-1.26-.8-1.89-1.21.02-.08.03-.17.05-.25.63.3,1.26.58,1.87.91.07.04-.02.36-.03.55Z"/><path class="cls-21" d="m327.66,125.4c.13.02.27.03.4.04.17.23.34.47.5.7-.03.41-.07.83-.1,1.25-.27-.66-.54-1.33-.8-1.99Z"/><path class="cls-8" d="m324.95,113.7c-.15-.01-.3-.02-.45-.03-.18-.39-.36-.78-.54-1.18,0-.08,0-.17,0-.25.02-.08.05-.16.07-.24,1.01.19.95.95.91,1.71Z"/><path class="cls-8" d="m199.3,3.12c-.64-.16-1.28-.32-1.92-.48.78-.42,1.44-.33,1.92.48Z"/><path class="cls-12" d="m324.04,112c-.02.08-.05.16-.07.24-1.01-.19-.94-.96-.91-1.71.24.33.48.67.72,1,.09.16.18.32.26.47Z"/><path class="cls-21" d="m319.91,101.94c.09-.01.18-.02.27-.04.15.41.3.82.44,1.23-.24-.4-.48-.8-.72-1.19Z"/><path class="cls-21" d="m321.27,104.85c-.19-.43-.37-.87-.56-1.31.14.02.27.04.41.07.08.16.16.32.24.48-.03.25-.06.51-.09.76Z"/><path class="cls-21" d="m331.96,146.27c-.07.25-.15.49-.22.74-.09-.4-.18-.81-.27-1.21.15,0,.3.01.45.02.01.15.03.3.04.46Z"/><path class="cls-8" d="m278.2,42.44c-.17.01-.34.02-.52.03-.12-.04-.24-.08-.36-.11.03-.05.03-.09,0-.14-.03-.16-.06-.33-.09-.49.32.24.64.48.96.71Z"/><path class="cls-21" d="m280.58,45.35c.16,0,.33,0,.49-.01.19.29.38.58.57.86-.35-.28-.71-.57-1.06-.85Z"/><path class="cls-21" d="m287.79,52.05c0,.16,0,.32,0,.49-.29-.35-.57-.7-.86-1.05.29.19.58.38.87.57Z"/><path class="cls-21" d="m321.91,105.97c-.03.1-.07.21-.1.31-.15-.33-.3-.66-.46-.99.09,0,.18,0,.27,0,.1.23.19.46.29.69Z"/><path class="cls-8" d="m245.59,19.44c0,.17-.01.34-.02.51-.24-.09-.49-.18-.73-.26,0-.17.01-.34.02-.5.24.09.49.17.73.26Z"/><path class="cls-8" d="m328.56,126.15c-.17-.23-.34-.47-.5-.7.02-.09.04-.17.06-.26.15.32.3.64.45.96Z"/><path class="cls-12" d="m331.28,142.2c-.04.25-.07.49-.11.74-.65-.31-.65-.63-.01-.96.04.07.08.15.12.22Z"/><path class="cls-8" d="m226.64,11.01c-.32-.16-.64-.32-.96-.48,0-.07,0-.14,0-.22.32.23.64.46.96.69Z"/><path class="cls-8" d="m276.03,40.57c-.23-.17-.46-.35-.69-.52.23.17.46.35.69.52Z"/><path class="cls-8" d="m274.35,39.13c-.24-.17-.48-.34-.71-.51.24.17.48.34.71.51Z"/><path class="cls-8" d="m227.6,11.27c-.24-.09-.47-.19-.71-.28.24.09.47.19.71.28Z"/><path class="cls-8" d="m328.53,128.07c0-.16.01-.32.02-.49.17.24.34.47.5.71,0,0-.03.02-.03.02-.17-.08-.33-.16-.5-.24Z"/><path class="cls-9" d="m229.06,11.96c-.17-.08-.34-.16-.5-.25.17.08.34.16.5.25Z"/><path class="cls-8" d="m321.62,105.28c-.09,0-.18,0-.27,0,0-.16,0-.31,0-.47.09.15.18.31.27.46Z"/><path class="cls-8" d="m321.36,104.09c-.08-.16-.16-.32-.24-.48.08.16.16.32.24.48Z"/><path class="cls-8" d="m273.4,38.39c-.15-.01-.31-.02-.46-.03-.02-.15-.05-.29-.07-.44.18.16.35.32.53.47Z"/><path class="cls-16" d="m297.15,64.27c-.92.45-.13.83.09,1.14,1.42,2.01,2.92,3.96,4.31,5.99,1.77,2.59,3.55,5.18,5.16,7.86,2.47,4.1,4.84,8.27,7.18,12.45.87,1.55,1.56,3.2,2.26,4.83,1.54,3.63,3.05,7.27,4.53,10.92.81,1.99,1.6,4,2.27,6.05.84,2.58,1.52,5.21,2.29,7.8.61,2.03,1.41,4.02,1.86,6.08,1.04,4.79,2.07,9.6,2.83,14.45.63,4.02.9,8.1,1.26,12.16.3,3.43.33,6.9.8,10.3.2,1.48.54,2.82-.05,4.27-.17.41,0,.95-.03,1.43-.22,2.84-.46,5.69-.69,8.53-.18,2.26-.3,4.52-.52,6.77-.18,1.77-.44,3.52-.72,5.28-.47,2.98-.84,5.98-1.49,8.91-.93,4.16-2.02,8.29-3.15,12.4-.8,2.9-1.64,5.8-2.73,8.59-2.41,6.2-4.78,12.42-7.54,18.47-2.84,6.25-6.35,12.18-10.09,17.94-2.27,3.49-4.87,6.76-7.34,10.13-1.31,1.79-2.54,3.66-3.99,5.33-1.93,2.23-4.04,4.3-6.06,6.45-.46.49-.86,1.05-1.34,1.52-1.74,1.7-3.57,3.31-5.26,5.06-3.27,3.36-6.78,6.43-10.48,9.29-2.91,2.25-5.74,4.62-8.74,6.74-2.99,2.11-6.11,4.03-9.24,5.92-3.36,2.02-6.76,3.96-10.22,5.82-2.34,1.26-4.79,2.32-7.21,3.43-1.82.84-3.65,1.66-5.51,2.41-1.04.42-2.15.69-3.36,1.06V12.85c1.13.36,2.17.59,3.12,1.02,3.91,1.74,7.84,3.43,11.66,5.36,3.64,1.85,7.22,3.83,10.68,6,4.74,2.98,9.39,6.09,13.97,9.32,3.01,2.13,5.86,4.49,8.69,6.86,2.47,2.07,4.88,4.22,7.19,6.47,2.87,2.8,5.66,5.68,8.38,8.62,1.85,2.01,3.49,4.2,5.29,6.26.34.39.96.53,1.44.79.16.24.32.48.48.72Z"/><path class="cls-11" d="m297.15,64.27c-.16-.24-.32-.48-.48-.72-1.69-2.04-3.41-4.07-5.07-6.14-.69-.86-1.26-1.82-1.88-2.74.15.08.29.16.44.24,1.51,1.77,3.02,3.55,4.54,5.31.11.13.35.15.52.22.93,1.28,1.86,2.55,2.78,3.84.15.21.25.46.37.7-.41-.24-.81-.47-1.22-.71Z"/><path class="cls-12" d="m317.5,95.93c.42.96.83,1.91,1.25,2.87-.04.08-.07.16-.11.25-1.13-.85-1.46-2.07-1.58-3.38.15.09.29.18.44.27Z"/><path class="cls-12" d="m328.86,130.55c.29.93.58,1.86.87,2.79-1.23-.64-.88-1.77-.87-2.79Z"/><path class="cls-20" d="m332.42,183.22c-.18.48-.35.96-.53,1.44-.24-1.02-.62-2.06.42-2.9.03.49.07.97.1,1.46Z"/><path class="cls-12" d="m329.71,133.6c.15.87.31,1.75.46,2.62-1.17-.7-.59-1.7-.46-2.62Z"/><path class="cls-12" d="m314.18,89.69c.4.64.8,1.28,1.21,1.91-.03.08-.06.16-.09.24-.37-.72-.74-1.44-1.11-2.16Z"/><path class="cls-13" d="m270.05,296.67c-.64.48-1.28.97-1.92,1.45.64-.48,1.28-.97,1.92-1.45Z"/><path class="cls-21" d="m328.53,128.07c.17.08.33.16.5.24-.04.39-.08.79-.12,1.18-.74-.31-.68-.84-.38-1.42Z"/><path class="cls-12" d="m316.06,239.58c-.31.57-.61,1.14-.92,1.71.31-.57.61-1.14.92-1.71Z"/><path class="cls-12" d="m331.22,143.39c.06.57.13,1.14.19,1.71-.84-.48-.4-1.11-.19-1.71Z"/><path class="cls-12" d="m329.47,199.78c-.13.48-.26.97-.4,1.45.13-.48.26-.97.4-1.45Z"/><path class="cls-12" d="m323.96,112.49c.18.39.36.78.54,1.18-.03.08-.07.17-.11.25-.84-.26-.74-.81-.44-1.43Z"/><path class="cls-13" d="m276.04,291.63c-.16.3-.33.6-.49.9-.23.11-.46.22-.69.33-.04-.83.35-1.24,1.19-1.23Z"/><path class="cls-20" d="m331.87,185.12c-.06.49-.13.97-.19,1.46.06-.49.13-.97.19-1.46Z"/><path class="cls-20" d="m332.4,155.41c.07.49.14.98.21,1.47-.07-.49-.14-.98-.21-1.47Z"/><path class="cls-12" d="m327.14,123.5c.14.4.27.8.41,1.21-.71-.21-.89-.59-.41-1.21Z"/><path class="cls-13" d="m308.15,253.97c-.36.47-.71.93-1.07,1.4.19-.59.13-1.37,1.07-1.4Z"/><path class="cls-12" d="m314.86,241.99c-.23.4-.46.8-.69,1.2.23-.4.46-.8.69-1.2Z"/><path class="cls-12" d="m322.57,108.88c.15.4.29.8.44,1.2-.54-.26-.88-.59-.44-1.2Z"/><path class="cls-12" d="m331.7,149.16c.06.4.12.8.18,1.21-.06-.4-.12-.8-.18-1.21Z"/><path class="cls-18" d="m229.27,320.41c-.32.16-.64.31-.96.47.13-.54.32-.97.96-.47Z"/><path class="cls-12" d="m327.09,210.57c-.08.32-.15.64-.23.96-.14.05-.27.09-.41.14.21-.37.42-.73.63-1.1Z"/><path class="cls-12" d="m324.91,217.28c-.13.32-.26.65-.4.97.13-.32.26-.65.4-.97Z"/><path class="cls-13" d="m298.37,267.9c-.25.32-.49.65-.74.97.25-.32.49-.65.74-.97Z"/><path class="cls-13" d="m259.73,304.1c-.32.23-.64.47-.97.7.32-.23.64-.47.97-.7Z"/><path class="cls-18" d="m263.58,301.47c-.32.24-.65.47-.97.71.32-.24.65-.47.97-.71Z"/><path class="cls-12" d="m324.5,114.63c.14.32.27.64.41.96-.14-.32-.27-.64-.41-.96Z"/><path class="cls-13" d="m272.45,294.75c-.32.24-.64.49-.96.73.32-.24.64-.49.96-.73Z"/><path class="cls-13" d="m306.28,256.86c-.24.33-.49.65-.73.98.24-.33.49-.65.73-.98Z"/><path class="cls-13" d="m307,255.66c-.21.3-.41.6-.62.9.21-.3.41-.6.62-.9Z"/><path class="cls-12" d="m320.38,229.52c-.15.33-.3.66-.44.99.15-.33.3-.66.44-.99Z"/><path class="cls-12" d="m324.21,219.2c-.07.24-.14.48-.21.72.07-.24.14-.48.21-.72Z"/><path class="cls-21" d="m328.3,205.99c-.13.26-.26.52-.38.78.13-.26.26-.52.38-.78Z"/><path class="cls-13" d="m296.17,270.98c-.15.09-.31.18-.46.27.25-.24.5-.48.74-.72-.09.15-.19.3-.28.45Z"/><path class="cls-12" d="m326.19,212.98c-.08.24-.16.48-.24.72.08-.24.16-.48.24-.72Z"/><path class="cls-13" d="m268.14,298.12c-.25.23-.49.45-.74.68.25-.23.49-.45.74-.68Z"/><path class="cls-13" d="m271.5,295.48c-.24.24-.48.49-.72.73.24-.24.48-.49.72-.73Z"/><path class="cls-12" d="m330.68,193.06c-.06.24-.12.49-.18.73.06-.24.12-.49.18-.73Z"/><path class="cls-11" d="m298.35,64.98l.68.74c-.23-.25-.45-.49-.68-.74Z"/><path class="cls-12" d="m325.94,119.19c.07.24.13.48.2.73-.07-.24-.13-.48-.2-.73Z"/><path class="cls-12" d="m329.96,197.14c-.06.24-.12.48-.18.73.06-.24.12-.48.18-.73Z"/><path class="cls-13" d="m273.61,293.79c-.23.17-.45.34-.68.51.23-.17.45-.34.68-.51Z"/><path class="cls-12" d="m316.33,238.63c-.1.23-.19.47-.29.7.1-.23.19-.47.29-.7Z"/><path class="cls-21" d="m267.68,34.26c.24.16.47.32.71.48-.24-.16-.47-.32-.71-.48Z"/><path class="cls-13" d="m258.76,304.81c-.24.16-.47.31-.71.47.24-.16.47-.31.71-.47Z"/><path class="cls-13" d="m256.86,306.02c-.24.16-.48.32-.72.48.24-.16.48-.32.72-.48Z"/><path class="cls-18" d="m251.85,309.15c-.25.16-.5.32-.74.47.25-.16.5-.32.74-.47Z"/><path class="cls-11" d="m262.85,30.94c.24.16.48.32.72.48-.24-.16-.48-.32-.72-.48Z"/><path class="cls-12" d="m326.65,121.59c.06.16.11.32.17.48-.06-.16-.11-.32-.17-.48Z"/><path class="cls-12" d="m318.74,99.52c.08.16.17.32.25.48-.08-.16-.17-.32-.25-.48Z"/><path class="cls-21" d="m310.78,249.63c-.14.18-.28.36-.42.53.14-.18.28-.36.42-.53Z"/><path class="cls-12" d="m313.72,244.15c-.09.16-.18.31-.27.47.09-.16.18-.31.27-.47Z"/><path class="cls-12" d="m315.15,241.28l-.24.48c.08-.16.16-.32.24-.48Z"/><path class="cls-12" d="m322.91,223.08c-.09.16-.17.32-.26.48-.07-.11-.14-.22-.21-.33.16-.05.31-.1.47-.16Z"/><path class="cls-12" d="m322.1,107.68c.06.16.13.32.19.48-.06-.16-.13-.32-.19-.48Z"/><path class="cls-18" d="m230.57,319.75c-.19.15-.38.29-.57.44.19-.15.38-.29.57-.44Z"/><path class="cls-12" d="m318.45,234.07c-.06.16-.13.32-.19.48.06-.16.13-.32.19-.48Z"/><path class="cls-13" d="m305.56,257.83c-.07.16-.15.32-.22.48.07-.16.15-.32.22-.48Z"/><path class="cls-12" d="m325.41,215.6c-.06.16-.13.32-.19.49.06-.16.13-.32.19-.49Z"/><path class="cls-20" d="m321.09,228.3c-.13.19-.26.37-.38.56.13-.19.26-.37.38-.56Z"/><path class="cls-11" d="m277.33,42.36c.12.04.24.08.36.11.02.15.04.3.06.45-.14-.19-.28-.37-.41-.56Z"/><path class="cls-12" d="m325.64,215.13c-.06.09-.12.17-.19.26.06-.09.12-.17.19-.26Z"/><path class="cls-12" d="m319.65,231.44c-.07.08-.13.17-.2.25.07-.08.13-.17.2-.25Z"/><path class="cls-12" d="m318.93,233.12c-.06.08-.13.16-.19.24.06-.08.13-.16.19-.24Z"/><path class="cls-12" d="m316.99,237.44c-.06.08-.12.16-.18.23.06-.08.12-.16.18-.23Z"/><path class="cls-12" d="m315.62,92.79c.07.08.13.17.2.25-.07-.08-.13-.17-.2-.25Z"/><path class="cls-13" d="m292.34,275.08c-.07.09-.14.18-.22.27.07-.09.14-.18.22-.27Z"/><path class="cls-12" d="m326.36,212.74c-.06.08-.12.17-.18.25.06-.08.12-.17.18-.25Z"/><path class="cls-13" d="m251.1,23.3c.08.07.16.13.25.2-.08-.07-.16-.13-.25-.2Z"/><path class="cls-13" d="m256.14,306.77c-.08-.01-.16-.02-.24-.04.08-.08.16-.16.25-.23,0,.09,0,.18,0,.27Z"/><path class="cls-27" d="m.72,163.8c.15-.11.41-.2.43-.33.27-1.87.59-3.73.75-5.61.17-2.06.09-4.14.29-6.2.2-2.12.63-4.22.88-6.33.17-1.48.14-2.98.33-4.46.16-1.24.54-2.45.79-3.68.61-2.98,1.17-5.98,1.81-8.95.28-1.29.72-2.55,1.07-3.83.27-.99.46-2.01.79-2.98,1.71-5.13,3.4-10.28,5.21-15.38.9-2.55,2-5.03,3.11-7.49,1.54-3.41,3.03-6.86,4.8-10.15,1.78-3.3,3.86-6.44,5.83-9.64,1.45-2.37,2.8-4.81,4.41-7.06,2.21-3.09,4.6-6.06,6.97-9.03,1.76-2.21,3.61-4.34,5.43-6.49.54-.64,1.11-1.26,1.69-1.85,2.56-2.58,5.07-5.23,7.73-7.7,2.94-2.73,5.99-5.35,9.08-7.92,3.08-2.56,6.21-5.08,9.43-7.46,2.19-1.61,4.57-2.97,6.88-4.41,2.53-1.57,5.07-3.12,7.64-4.62,1.3-.76,2.66-1.42,4.01-2.1,2.08-1.06,4.14-2.16,6.25-3.13,2.61-1.2,5.27-2.3,7.91-3.42.76-.33,1.53-.66,2.33-.87.23-.06.69.26.83.52.15.29.04.7.04,1.06,0,101.45,0,202.89,0,304.34,0,.56-.08,1.13-.14,1.97-2.49-1.08-4.7-2.01-6.89-2.99-2.92-1.29-5.84-2.57-8.72-3.94-1.49-.71-2.9-1.58-4.31-2.43-4.84-2.91-9.66-5.84-14.5-8.76-.96-.58-2.03-1-2.92-1.67-1.22-.92-2.27-2.04-3.45-3.01-1.99-1.64-4.05-3.2-6.04-4.84-1.72-1.42-3.46-2.82-5.05-4.37-3.77-3.67-7.52-7.38-11.16-11.18-1.84-1.92-3.44-4.07-5.12-6.13-1.18-1.44-2.38-2.88-3.49-4.38-2-2.69-4-5.39-5.88-8.17-2.03-3.02-3.98-6.1-5.85-9.23-1.29-2.16-2.41-4.44-3.57-6.68-1.23-2.35-2.49-4.69-3.6-7.1-1.04-2.25-1.92-4.57-2.84-6.87-.78-1.94-1.56-3.88-2.27-5.84-.81-2.22-1.56-4.46-2.3-6.7-.58-1.77-1.14-3.55-1.66-5.34-.36-1.24-.65-2.51-.96-3.76-.6-2.49-1.25-4.97-1.77-7.48-.45-2.21-.79-4.44-1.09-6.67-.45-3.38-.85-6.76-1.21-10.14-.28-2.64-.45-5.29-.73-7.93-.2-1.88-.48-3.74-.76-5.61-.02-.13-.28-.22-.43-.33-.15-.56-.3-1.13-.44-1.69,0-.71,0-1.43,0-2.14.15-.48.3-.97.44-1.45Z"/><path class="cls-10" d="m.27,167.39c.15.56.3,1.13.44,1.69.08,1.62.17,3.24.23,4.87.01.37-.13.75-.2,1.13-.15,0-.3-.01-.46-.02,0-2.56-.01-5.11-.02-7.67Z"/><path class="cls-10" d="m.72,163.8c-.15.48-.3.97-.44,1.45,0-2.32,0-4.63,0-6.95.15,0,.3,0,.45-.01.07.65.21,1.31.2,1.96-.02,1.19-.13,2.37-.21,3.56Z"/><path class="cls-23" d="m.29,175.06c.15,0,.3.01.46.02,0,.31.01.62.01.93.07.65.14,1.3.22,1.95,0,.72,0,1.43,0,2.15-.15,0-.31,0-.46,0-.07-1.68-.14-3.37-.22-5.05Z"/><path class="cls-22" d="m.88,152.5c0,.79,0,1.59.01,2.38-.21.02-.41.05-.62.07,0-.81-.02-1.61-.02-2.42.21-.01.42-.02.63-.03Z"/><path class="cls-23" d="m.27,154.96c.21-.02.41-.05.62-.07.02.17.05.35.07.52-.07.49-.14.98-.2,1.47,0,.47-.02.94-.03,1.41-.15,0-.3,0-.45.01,0-1.11,0-2.23,0-3.34Z"/><path class="cls-19" d="m.51,180.11c.15,0,.31,0,.46,0-.02.17-.04.34-.05.51-.21-.01-.43-.02-.64-.03.08-.16.15-.31.23-.47Z"/><path class="cls-10" d="m1.6,184.74c-.23-.59-.45-1.17-.68-1.76.06-.4.11-.8.17-1.21.19.57.45,1.12.56,1.7.08.4-.03.84-.05,1.27Z"/><path class="cls-28" d="m108.64,12.23c.08,0,.17,0,.25,0-.03.08-.05.16-.08.24-.06-.08-.12-.16-.17-.24Z"/><path class="cls-18" d="m224.94,321.87c-.16-.09-.32-.18-.48-.26.03-.56.06-1.12.08-1.69.13.65.26,1.3.39,1.95Z"/><path class="cls-10" d="m2.18,190.18c-.15-.81-.3-1.61-.44-2.42.15.81.3,1.61.44,2.42Z"/><path class="cls-10" d="m.98,177.95c-.07-.65-.14-1.3-.22-1.95.79.57.46,1.26.22,1.95Z"/><path class="cls-24" d="m3.15,136.01c.14-.57.28-1.14.42-1.71-.14.57-.28,1.14-.42,1.71Z"/><path class="cls-10" d="m.76,156.88c.07-.49.14-.98.2-1.47-.07.49-.14.98-.2,1.47Z"/><path class="cls-24" d="m5.43,206.78c-.13-.34-.26-.67-.39-1.01.13.34.26.67.39,1.01Z"/><path class="cls-28" d="m103.36,320.19c-.32-.16-.64-.32-.96-.49.32.16.64.32.96.49Z"/><path class="cls-25" d="m96.18,317.03c-.33-.23-.67-.46-1-.68.33.23.67.46,1,.68Z"/><path class="cls-27" d="m35.98,269.07c-.23-.16-.47-.32-.7-.48-.01-.15-.02-.31-.04-.46.25.31.49.63.74.94Z"/><path class="cls-28" d="m10.77,224.01c-.15-.32-.3-.65-.45-.97.15.32.3.65.45.97Z"/><path class="cls-28" d="m105.05,320.87c-.24-.14-.49-.29-.73-.43.24.14.49.29.73.43Z"/><path class="cls-10" d="m1.67,186.35c-.02-.24-.03-.48-.05-.73.02.24.03.48.05.73Z"/><path class="cls-10" d="m3.53,197.69c-.12-.27-.23-.55-.35-.82.12.27.23.55.35.82Z"/><path class="cls-28" d="m7.42,213.93c-.09-.24-.17-.48-.26-.71.09.24.17.48.26.71Z"/><path class="cls-25" d="m40.56,58.28c.15-.24.31-.47.46-.71-.15.24-.31.47-.46.71Z"/><path class="cls-25" d="m100.94,13.9c.25-.16.49-.32.74-.48-.25.16-.49.32-.74.48Z"/><path class="cls-25" d="m55.88,290.67c-.08-.16-.17-.32-.25-.47.24.17.48.34.71.51-.15-.01-.31-.02-.46-.04Z"/><path class="cls-28" d="m9.33,220.87c0-.08.03-.16.05-.23.13.19.27.38.4.57-.15-.11-.31-.22-.46-.34Z"/><path class="cls-28" d="m6.7,211.53c-.07-.16-.15-.32-.22-.49.07.16.15.32.22.49Z"/><path class="cls-25" d="m102.88,12.92c.16-.07.33-.14.49-.21-.16.07-.33.14-.49.21Z"/><path class="cls-28" d="m108.16,10.83c.15.15.29.3.44.45-.15-.15-.29-.3-.44-.45Z"/><path class="cls-25" d="m55.63,290.2c-.17-.08-.35-.16-.52-.24.01-.08.03-.17.04-.25.16.16.32.32.48.49Z"/></g></svg>