<?xml version="1.0" encoding="UTF-8"?><svg id="Layer_2" xmlns="http://www.w3.org/2000/svg" xmlns:xlink="http://www.w3.org/1999/xlink" viewBox="0 0 800 500"><defs><style>.cls-1{fill:none;}.cls-2{stroke-width:42.67px;}.cls-2,.cls-3,.cls-4,.cls-5{stroke-miterlimit:426.67;}.cls-2,.cls-4{stroke:red;}.cls-6{clip-path:url(#clippath);}.cls-7{fill:#00008b;}.cls-8{fill:#fff;}.cls-3{stroke-width:106.67px;}.cls-3,.cls-5{stroke:#fff;}.cls-4,.cls-5{stroke-width:64px;}.cls-9{clip-path:url(#clippath-1);}</style><clipPath id="clippath"><rect class="cls-1" width="400" height="250"/></clipPath><clipPath id="clippath-1"><path class="cls-1" d="m0,0v125h400v125h0L0,0Zm400,0h-200v250H0L400,0Z"/></clipPath></defs><g id="Layer_1-2"><rect class="cls-7" width="800" height="500"/><g class="cls-6"><path class="cls-5" d="m0,0l400,250m0-250L0,250"/></g><g class="cls-9"><path class="cls-2" d="m0,0l400,250m0-250L0,250"/></g><path class="cls-3" d="m200,0v250M0,125h400"/><path class="cls-4" d="m200,0v250M0,125h400"/><g id="Comwlth"><path id="Star7" class="cls-8" d="m200,300l11.57,44.97,35.34-16.73-20.91,39.34,32.5,24.11-37.65,4.09,5.18,46.79-26.03-34.24-26.03,34.24,5.18-46.79-37.65-4.09,32.5-24.11-20.91-39.34,35.34,16.73,11.57-44.97Z"/></g><g id="_αCrucis"><path id="Star7-2" class="cls-8" d="m600,380.95l5.51,21.41,16.83-7.97-9.96,18.74,15.48,11.48-17.93,1.95,2.47,22.28-12.4-16.3-12.4,16.3,2.47-22.28-17.93-1.95,15.48-11.48-9.96-18.74,16.83,7.97,5.51-21.41Z"/></g><g id="_βCrucis"><path id="Star7-3" class="cls-8" d="m500,183.04l5.51,21.41,16.83-7.97-9.96,18.74,15.48,11.48-17.93,1.95,2.47,22.28-12.4-16.3-12.4,16.3,2.47-22.28-17.93-1.95,15.48-11.48-9.96-18.74,16.83,7.97,5.51-21.41Z"/></g><g id="_γCrucis"><path id="Star7-4" class="cls-8" d="m600,47.62l5.51,21.41,16.83-7.97-9.96,18.74,15.48,11.48-17.93,1.95,2.47,22.28-12.4-16.3-12.4,16.3,2.47-22.28-17.93-1.95,15.48-11.48-9.96-18.74,16.83,7.97,5.51-21.41Z"/></g><g id="_δCrucis"><path id="Star7-5" class="cls-8" d="m688.89,149.7l5.51,21.41,16.83-7.97-9.96,18.74,15.48,11.48-17.93,1.95,2.47,22.28-12.4-16.3-12.4,16.3,2.47-22.28-17.93-1.95,15.48-11.48-9.96-18.74,16.83,7.97,5.51-21.41Z"/></g><g id="_εCrucis"><path id="Star5" class="cls-8" d="m640,250l4.35,13.34,11.5,1.05-8.81,9.3,2.75,13.99-9.8-7.6-9.8,7.6,2.75-13.99-8.81-9.3,11.5-1.05,4.35-13.34Z"/></g></g></svg>